<svg width="10450" height="6055" viewBox="0 0 10450 6055" fill="none" xmlns="http://www.w3.org/2000/svg">
<path d="M194.481 367.849V184.424H387.963V2202.09H581.444V4036.33H387.963V5870.58H194.481V5687.15H1V367.849H194.481Z" fill="#BDBCBC"/>
<path d="M10255.5 184.424H10062V2202.09H9868.56V4036.33H10062V5870.58H10255.5V5687.15H10449V367.849H10255.5V184.424Z" fill="#BDBCBC"/>
<path d="M194.481 367.849V184.424H387.963V2202.09H581.444V4036.33H387.963V5870.58H194.481V5687.15H1V367.849H194.481Z" stroke="#BDBCBC"/>
<path d="M10255.5 184.424H10062V2202.09H9868.56V4036.33H10062V5870.58H10255.5V5687.15H10449V367.849H10255.5V184.424Z" stroke="#BDBCBC"/>
<path d="M194.482 184.424V1H581.445V184.424H774.926V551.273H968.408V918.121H1161.89V1468.39H1355.37V2018.67H1161.89V1468.39H968.408V918.121H774.926V551.273H581.445V184.424H194.482Z" fill="#F4F4F4"/>
<path d="M387.963 2202.09V734.697H581.445V1101.55H774.926V1651.82H968.408V2202.09H1355.37V3852.91H968.408V4403.18H774.926V4953.45H581.445V5320.3H387.963V4036.33H581.445V2202.09H387.963Z" fill="#F4F4F4"/>
<path d="M1161.89 4586.61V4036.33H1355.37V4586.61H1161.89V5136.88H968.408V5503.73H774.926V5870.58H581.445V6054H194.482V5870.58H581.445V5503.73H774.926V5136.88H968.408V4586.61H1161.89Z" fill="#F4F4F4"/>
<path d="M2516.26 3486.06V2568.94H2709.74V2018.67H2903.22V1651.82H3096.7V1468.39H3290.19V1101.55H3677.15V1284.97H3870.63V1651.82H3677.15V1835.24H3483.67V2018.67H3290.19V2568.94H3096.7V3486.06H3290.19V4036.33H3483.67V4219.76H3677.15V4403.18H3870.63V4770.03H3677.15V4953.45H3290.19V4586.61H3096.7V4403.18H2903.22V4036.33H2709.74V3486.06H2516.26Z" fill="#F4F4F4"/>
<path d="M6772.85 1284.97V1101.55H7159.82V1468.39H7353.3V1651.82H7546.78V2018.67H7740.26V2568.94H7933.74V3486.06H7740.26V4036.33H7546.78V4403.18H7353.3V4586.61H7159.82V4953.45H6772.85V4770.03H6579.37V4403.18H6772.85V4219.76H6966.33V4036.33H7159.82V3486.06H7353.3V2568.94H7159.82V2018.67H6966.33V1835.24H6772.85V1651.82H6579.37V1284.97H6772.85Z" fill="#F4F4F4"/>
<path d="M4644.56 5687.15V5136.88H5805.45V5687.15H4644.56Z" fill="#F4F4F4"/>
<path d="M9868.56 5870.58H10255.5V6054H9868.56V5870.58H9675.08V5503.73H9481.59V5136.88H9288.11V4586.61H9094.63V4036.33H9288.11V4586.61H9481.59V5136.88H9675.08V5503.73H9868.56V5870.58Z" fill="#F4F4F4"/>
<path d="M9868.56 5320.3H10062V4036.33H9868.56V2202.09H10062V734.697H9868.56V1101.55H9675.08V1651.82H9481.59V2202.09H9094.63V3852.91H9481.59V4403.18H9675.08V4953.45H9868.56V5320.3Z" fill="#F4F4F4"/>
<path d="M9094.63 2018.67V1468.39H9288.11V918.121H9481.59V551.273H9675.08V184.424H9868.56V1H10255.5V184.424H9868.56V551.273H9675.08V918.121H9481.59V1468.39H9288.11V2018.67H9094.63Z" fill="#F4F4F4"/>
<path d="M581.445 184.424H194.482V1H581.445V184.424ZM581.445 184.424V551.273H774.926M581.445 184.424H774.926V551.273M774.926 551.273V918.121H968.408M774.926 551.273H968.408V918.121M968.408 918.121V1468.39H1161.89M968.408 918.121H1161.89V1468.39M1161.89 1468.39V2018.67H1355.37V1468.39H1161.89ZM1161.89 4586.61V4036.33H1355.37V4586.61H1161.89ZM1161.89 4586.61H968.408V5136.88M1161.89 4586.61V5136.88H968.408M968.408 5136.88H774.926V5503.73M968.408 5136.88V5503.73H774.926M774.926 5503.73H581.445V5870.58M774.926 5503.73V5870.58H581.445M581.445 5870.58H194.482V6054H581.445V5870.58ZM9868.56 5870.58H10255.5V6054H9868.56V5870.58ZM9868.56 5870.58V5503.73H9675.08M9868.56 5870.58H9675.08V5503.73M9675.08 5503.73V5136.88H9481.59M9675.08 5503.73H9481.59V5136.88M9481.59 5136.88V4586.61H9288.11M9481.59 5136.88H9288.11V4586.61M9288.11 4586.61V4036.33H9094.63V4586.61H9288.11ZM9288.11 1468.39V2018.67H9094.63V1468.39H9288.11ZM9288.11 1468.39V918.121H9481.59M9288.11 1468.39H9481.59V918.121M9481.59 918.121V551.273H9675.08M9481.59 918.121H9675.08V551.273M9675.08 551.273V184.424H9868.56M9675.08 551.273H9868.56V184.424M9868.56 184.424V1H10255.5V184.424H9868.56ZM387.963 734.697V2202.09H581.445V4036.33H387.963V5320.3H581.445V4953.45H774.926V4403.18H968.408V3852.91H1355.37V2202.09H968.408V1651.82H774.926V1101.55H581.445V734.697H387.963ZM2516.26 2568.94V3486.06H2709.74V4036.33H2903.22V4403.18H3096.7V4586.61H3290.19V4953.45H3677.15V4770.03H3870.63V4403.18H3677.15V4219.76H3483.67V4036.33H3290.19V3486.06H3096.7V2568.94H3290.19V2018.67H3483.67V1835.24H3677.15V1651.82H3870.63V1284.97H3677.15V1101.55H3290.19V1468.39H3096.7V1651.82H2903.22V2018.67H2709.74V2568.94H2516.26ZM6772.85 1101.55V1284.97H6579.37V1651.82H6772.85V1835.24H6966.33V2018.67H7159.82V2568.94H7353.3V3486.06H7159.82V4036.33H6966.33V4219.76H6772.85V4403.18H6579.37V4770.03H6772.85V4953.45H7159.82V4586.61H7353.3V4403.18H7546.78V4036.33H7740.26V3486.06H7933.74V2568.94H7740.26V2018.67H7546.78V1651.82H7353.3V1468.39H7159.82V1101.55H6772.85ZM4644.56 5136.88V5687.15H5805.45V5136.88H4644.56ZM10062 5320.3H9868.56V4953.45H9675.08V4403.18H9481.59V3852.91H9094.63V2202.09H9481.59V1651.82H9675.08V1101.55H9868.56V734.697H10062V2202.09H9868.56V4036.33H10062V5320.3Z" stroke="#F4F4F4"/>
<path d="M3097 3486.26V2569.19H3290.45V2018.94H3483.91V1835.53H3677.36V1652.11H3870.82V1285.28H4257.73V1101.86H4644.64V919H5805.36V1101.86H6192.27V1285.28H6579.18V1652.11H6772.64V1835.53H6966.09V2018.94H7159.55V2569.19H7353V3486.26H7159.55V4036.51H6966.09V4219.92H6772.64V4403.34H6579.18V4770.17H6192.27V4953.58H5805.36V5137H4644.64V4953.58H4257.73V4770.17H3870.82V4403.34H3677.36V4219.92H3483.91V4036.51H3290.45V3486.26H3097Z" fill="#A3B9B9" stroke="#A3B9B9"/>
<path d="M387.963 734.697V184.424H581.444V551.273H774.926V918.121H968.407V1468.39H1161.89V2018.67H1355.37V2202.09H968.407V1651.82H774.926V1101.55H581.444V734.697H387.963Z" fill="#FFAB48"/>
<path d="M968.407 3852.91H1355.37V4036.33H1161.89V4586.61H968.407V5136.88H774.926V5503.73H581.444V5870.58H387.963V5320.3H581.444V4953.45H774.926V4403.18H968.407V3852.91Z" fill="#FFAB48"/>
<path d="M1355.37 3302.64V2752.36H1548.85V2935.79H2129.3V2752.36H2322.78V2568.94H2516.26V2385.52H2709.74V2568.94H2516.26V3486.06H2709.74V3669.48H2516.26V3486.06H2322.78V3302.64H2129.3V3119.21H1548.85V3302.64H1355.37Z" fill="#FFAB48"/>
<path d="M3677.15 5136.88V4770.03H4257.59V4953.45H4644.56V5503.73H4257.59V5320.3H3870.63V5136.88H3677.15Z" fill="#FFAB48"/>
<path d="M5805.44 5503.73V4953.45H6192.41V4770.03H6772.85V5136.88H6579.37V5320.3H6192.41V5503.73H5805.44Z" fill="#FFAB48"/>
<path d="M3677.15 918.121V1284.97H4257.59V1101.55H4644.56V918.121H5805.44V1101.55H6192.41V1284.97H6772.85V918.121H6579.37V734.697H6192.41V551.273H5805.44V367.849H4644.56V551.273H4257.59V734.697H3870.63V918.121H3677.15Z" fill="#FFAB48"/>
<path d="M7740.26 2568.94V2385.52H7933.74V2568.94H8127.22V2752.36H8320.7V2935.79H8901.15V2752.36H9094.63V3302.64H8901.15V3119.21H8320.7V3302.64H8127.22V3486.06H7933.74V3669.48H7740.26V3486.06H7933.74V2568.94H7740.26Z" fill="#FFAB48"/>
<path d="M9481.59 2202.09H9094.63V2018.67H9288.11V1468.39H9481.59V918.121H9675.07V551.273H9868.56V184.424H10062V734.697H9868.56V1101.55H9675.07V1651.82H9481.59V2202.09Z" fill="#FFAB48"/>
<path d="M9094.63 4036.33V3852.91H9481.59V4403.18H9675.07V4953.45H9868.56V5320.3H10062V5870.58H9868.56V5503.73H9675.07V5136.88H9481.59V4586.61H9288.11V4036.33H9094.63Z" fill="#FFAB48"/>
<path d="M2516.26 3486.06H2322.78V3302.64H2129.3V3119.21H1548.85V3302.64H1355.37V2752.36H1548.85V2935.79H2129.3V2752.36H2322.78V2568.94H2516.26M2516.26 3486.06V2568.94M2516.26 3486.06V3669.48H2709.74V3486.06H2516.26ZM2516.26 2568.94V2385.52H2709.74V2568.94H2516.26ZM7933.74 2568.94H7740.26V2385.52H7933.74V2568.94ZM7933.74 2568.94V3486.06M7933.74 2568.94H8127.22V2752.36H8320.7V2935.79H8901.15V2752.36H9094.63V3302.64H8901.15V3119.21H8320.7V3302.64H8127.22V3486.06H7933.74M7933.74 3486.06H7740.26V3669.48H7933.74V3486.06ZM387.963 184.424V734.697H581.444V1101.55H774.926V1651.82H968.407V2202.09H1355.37V2018.67H1161.89V1468.39H968.407V918.121H774.926V551.273H581.444V184.424H387.963ZM1355.37 3852.91H968.407V4403.18H774.926V4953.45H581.444V5320.3H387.963V5870.58H581.444V5503.73H774.926V5136.88H968.407V4586.61H1161.89V4036.33H1355.37V3852.91ZM3677.15 4770.03V5136.88H3870.63V5320.3H4257.59V5503.73H4644.56V4953.45H4257.59V4770.03H3677.15ZM5805.44 4953.45V5503.73H6192.41V5320.3H6579.37V5136.88H6772.85V4770.03H6192.41V4953.45H5805.44ZM3677.15 1284.97V918.121H3870.63V734.697H4257.59V551.273H4644.56V367.849H5805.44V551.273H6192.41V734.697H6579.37V918.121H6772.85V1284.97H6192.41V1101.55H5805.44V918.121H4644.56V1101.55H4257.59V1284.97H3677.15ZM9094.63 2202.09H9481.59V1651.82H9675.07V1101.55H9868.56V734.697H10062V184.424H9868.56V551.273H9675.07V918.121H9481.59V1468.39H9288.11V2018.67H9094.63V2202.09ZM9094.63 3852.91V4036.33H9288.11V4586.61H9481.59V5136.88H9675.07V5503.73H9868.56V5870.58H10062V5320.3H9868.56V4953.45H9675.07V4403.18H9481.59V3852.91H9094.63Z" stroke="#FFAB48"/>
<path d="M4565.5 2017C4550 2028.5 4515 2066 4515 2066L4346.5 2834.5C4346.5 2834.5 4331 3002.5 4315.5 3050C4300 3097.5 4284.5 3131.5 4284.5 3131.5L4137.5 3762C4137.5 3762 4203 3866.5 4218 3876C4233 3885.5 4337 4006.5 4330.5 4012C4324 4017.5 4221 3947 4184 3934C4147 3921 4123 3925 4101.5 3926C4080 3927 3986 3944 3940 3978C3894 4012 3932 4190 3932 4190C3932 4190 3925 4215 3964.5 4338.5C4004 4462 4060.5 4626 4106.5 4639.5C4152.5 4653 4282 4631.5 4292 4639.5C4302 4647.5 4297 4671.5 4310.5 4682.5C4324 4693.5 4439.5 4708.5 4439.5 4708.5C4439.5 4708.5 4656 4729 4764 4734C4872 4739 5260.5 4739 5353 4744.5C5445.5 4750 5534.5 4764.5 5622 4767C5709.5 4769.5 5806 4761.5 5820.5 4752.5C5835 4743.5 5836.5 4690 5844 4690H6045.5C6065.5 4690 6080 4674.5 6096 4652C6112 4629.5 6123 4563.5 6149.5 4528C6176 4492.5 6205.5 4460.5 6232.5 4413C6259.5 4365.5 6265 4308 6283.5 4256C6302 4204 6335.5 4117 6335 4101C6334.5 4085 6324.5 4052 6318 4046C6311.5 4040 6291 4026 6283.5 4017C6276 4008 6294.5 3984.5 6291 3959C6287.5 3933.5 6266 3917.5 6266 3917.5L6277.5 3195C6277.5 3195 6217.5 2993 6211 2885C6204.5 2777 6217.5 2687 6217.5 2687C6217.5 2687 6227.5 2609.5 6246 2519.5C6264.5 2429.5 6252 2298 6250.5 2275.5C6249 2253 6257 2260.5 6239.5 2237C6222 2213.5 6083.5 2043 6083.5 2043C6083.5 2043 5979 1931 5952 1893.5C5925 1856 5912.5 1824.5 5891.5 1782.5C5870.5 1740.5 5843.5 1629.5 5843.5 1629.5C5843.5 1629.5 5796.5 1339 5774 1272.5C5751.5 1206 5725 1186 5687.5 1151.5C5650 1117 5589 1100.5 5551.5 1089.5C5514 1078.5 5458.5 1084 5458.5 1084L4879.5 1573L4857.5 1619.5C4857.5 1619.5 4843.5 1652 4821 1691.5C4798.5 1731 4766 1787 4766 1787C4766 1787 4722.5 1852 4690.5 1890C4658.5 1928 4644.5 1947 4619.5 1971C4594.5 1995 4581 2005.5 4565.5 2017Z" fill="#F4F4F4" stroke="#F4F4F4"/>
<path d="M4312.5 3044C4299 3092 4282.5 3131 4282.5 3131C4282.5 3131 4302.5 3149 4318 3156.5C4333.5 3164 4377.5 3186.5 4377.5 3186.5C4377.5 3186.5 4358.82 3123 4356 3075C4353.18 3027 4347.5 2841 4347.5 2841C4347.5 2841 4326 2996 4312.5 3044Z" fill="#6A6A6A"/>
<path d="M5917 4397C5917 4397 5890 4531.5 5873.5 4567C5857 4602.5 5843.5 4691 5843.5 4691L5917 4397ZM6246.5 2280.5C6246.5 2280.5 6231.5 2261.5 6217.5 2255C6203.5 2248.5 6178.5 2248.5 6166.5 2255C6154.5 2261.5 6132.5 2280.5 6132.5 2280.5H6246.5ZM4282.5 3131C4282.5 3131 4299 3092 4312.5 3044C4326 2996 4347.5 2841 4347.5 2841C4347.5 2841 4353.18 3027 4356 3075C4358.82 3123 4377.5 3186.5 4377.5 3186.5C4377.5 3186.5 4333.5 3164 4318 3156.5C4302.5 3149 4282.5 3131 4282.5 3131Z" stroke="#3D3D3D" stroke-width="3"/>
<path d="M4172 4220L4211 4303.5L4257 4230.5L4323 4183.5L4358.5 4040.5L4340 4014.5L4274.5 3988L4201 3941L4144 3931.5L4123.5 3982L4144 4180.5L4172 4220Z" fill="#6A6A6A"/>
<path d="M4292 4636.5L4247 4563.5L4206 4369L4211 4303.5L4292 4636.5ZM4211 4303.5L4172 4220L4144 4180.5L4123.5 3982L4144 3931.5L4201 3941L4274.5 3988L4340 4014.5L4358.5 4040.5L4323 4183.5L4257 4230.5L4211 4303.5Z" stroke="#3D3D3D" stroke-width="3"/>
<path d="M4164 3837C4151 3827 4128.5 3772 4128.5 3772C4128.5 3772 4186 3810.5 4214 3823.5C4242 3836.5 4345.5 3877 4365 3873.5C4384.5 3870 4384.5 3871.5 4403 3870C4421.5 3868.5 4525 3908 4525 3908L4461.5 4004L4362 4050.5L4327 4004C4327 4004 4263.5 3918 4230 3890C4196.5 3862 4177 3847 4164 3837Z" fill="#6A6A6A" stroke="#3D3D3D" stroke-width="3"/>
<path d="M4473 4630C4465 4657 4435 4687.5 4441 4704C4447 4720.5 4798.5 4743 4916 4743H5345C5345 4743 5667 4770 5675.5 4762C5684 4754 5651 4681.5 5633.5 4654.5C5616 4627.5 5591.5 4603.5 5570 4590C5548.5 4576.5 5516.5 4566.5 5486.5 4561C5456.5 4555.5 5152 4534 5152 4534C5152 4534 4875.5 4523.5 4788 4523.5C4700.5 4523.5 4573.5 4524.5 4546.5 4534C4519.5 4543.5 4522 4535.5 4508.5 4553C4495 4570.5 4481 4603 4473 4630Z" fill="#6A6A6A" stroke="#3D3D3D"/>
<path d="M5910 4414C5904.5 4409 5924.5 4303 5924.5 4303L5958.5 4297L6001.5 4319.5C6001.5 4319.5 5966 4348 5952 4359.5C5938 4371 5915.5 4419 5910 4414Z" fill="#6A6A6A" stroke="black" stroke-width="3"/>
<path d="M6099.5 3975C6099.5 3975 6149 3970 6167 3975C6185 3980 6203.5 3995.5 6220.5 4001.5C6237.5 4007.5 6283 4015 6283 4015" stroke="#3D3D3D" stroke-width="3"/>
<path d="M6116 3275L4376.5 3187C4376.5 3187 4320 3161 4298.5 3145C4277 3129 4250.09 3102.19 4239.5 3093.5C4214.5 3073 4121 3012.5 4086 3006C4051 2999.5 3948.5 2933 3919 2930C3889.5 2927 3812.5 2930 3793.5 2942C3774.5 2954 3759 2964.5 3743.5 2973C3728 2981.5 3688 3021 3670 3047C3652 3073 3658.5 3086.5 3649 3104C3639.5 3121.5 3625 3142 3619.5 3166C3614 3190 3619.5 3237 3619.5 3260.5C3619.5 3284 3614 3337.5 3619.5 3357C3625 3376.5 3652.5 3425.5 3673 3446C3693.5 3466.5 3697.5 3461 3713.5 3479C3729.5 3497 3730 3508 3743.5 3527.5C3757 3547 3782.5 3566.5 3793.5 3574C3804.5 3581.5 3811 3605 3836.5 3619C3862 3633 3881.5 3623.5 3910 3641.5C3938.5 3659.5 3958 3693.5 3995 3715.5C4032 3737.5 4116.5 3769.5 4136 3780.5C4155.5 3791.5 4194.5 3816.5 4254 3838.5C4313.5 3860.5 4353 3872 4366 3872C4379 3872 4384.5 3867 4411.5 3872C4438.5 3877 4635 3939 4669.5 3962.5C4704 3986 4868.5 4151 4936 4175.5C5003.5 4200 5107 4251 5172 4235.5C5237 4220 5269.5 4108.5 5269.5 4108.5C5269.5 4108.5 5286.5 4055 5303 4018.5C5319.5 3982 5343 3951.5 5355.5 3951.5C5368 3951.5 5404 3974 5427.5 3982C5451 3990 5472.5 3983.5 5492.5 3993.5C5512.5 4003.5 5504 4020 5545 4028.5C5586 4037 5645.5 4014 5645.5 4014C5645.5 4014 5709 3987.5 5748 3987C5787 3986.5 6089 3943.5 6089 3943.5C6089 3943.5 6168 3944.5 6233.5 3926.5C6299 3908.5 6391.5 3864 6434 3845.5C6476.5 3827 6537 3821.5 6554.5 3807.5C6572 3793.5 6554.5 3774.5 6569.5 3772C6584.5 3769.5 6587 3787.5 6607 3781.5C6627 3775.5 6749 3691.5 6772.5 3669C6796 3646.5 6797.5 3634 6808.5 3603.5C6819.5 3573 6805.5 3528.5 6812 3487C6818.5 3445.5 6822 3473 6842 3406C6862 3339 6826 3295 6772 3223C6718 3151 6676 3155 6621 3145C6566 3135 6378.5 3163 6348 3173.5C6317.5 3184 6310 3194 6298.5 3197.5C6287 3201 6282 3190 6269.5 3197.5C6257 3205 6233 3224 6217 3232C6201 3240 6116 3275 6116 3275Z" fill="#4A73A4" stroke="#4A73A4"/>
<path d="M6216.5 3345.8C6216.5 3345.8 6244.5 3320.5 6252 3305.5C6259.5 3290.5 6250.5 3266.5 6270 3258.5C6289.5 3250.5 6331.5 3265 6386.5 3258.5C6441.5 3252 6560 3230.5 6560 3230.5M4030 3155.5C4030 3155.5 4064 3182 4094.5 3182C4125 3182 4142 3174 4178.5 3172.5C4215 3171 4250.5 3173.5 4277 3187C4303.5 3200.5 4335.5 3237.5 4335.5 3237.5C4335.5 3237.5 4352 3271 4373 3287.5C4394 3304 4400.5 3317.5 4440 3348C4479.5 3378.5 4524.5 3406.5 4572 3436C4619.5 3465.5 4664 3505 4701.5 3540.5C4739 3576 4813.5 3623 4837.5 3643C4861.5 3663 4907 3707.5 4965 3727C5023 3746.5 5048.5 3764.5 5101 3789.5C5153.5 3814.5 5184.5 3852 5228.5 3879.5C5272.5 3907 5369 3950.5 5369 3950.5L4030 3155.5ZM5078.5 3778.44C5078.5 3778.44 5076 3720.5 5091.5 3708.5C5107 3696.5 5145 3708.5 5145 3708.5C5145 3708.5 5284 3751 5332.5 3751.5C5381 3752 5474 3717.5 5490 3708.5C5506 3699.5 5519.5 3687 5553.5 3671C5587.5 3655 5620 3665 5640.5 3642C5661 3619 5660 3593 5677.5 3578C5695 3563 5716 3567.5 5741 3556.5C5766 3545.5 5786 3516.5 5820 3495C5854 3473.5 5934.5 3453.5 5976 3432C6017.5 3410.5 6023.5 3407 6066.5 3374.5C6109.5 3342 6140 3338 6155.5 3335.5C6171 3333 6216.5 3345.8 6216.5 3345.8L5078.5 3778.44ZM6386.5 3374.5C6386.5 3374.5 6336 3369.5 6289.5 3365C6243 3360.5 6216.5 3345.8 6216.5 3345.8L6386.5 3374.5Z" stroke="#67ACFF" stroke-width="3"/>
<path d="M4881 1922L4992.5 1894.5L5014 1915.5V1943C5014 1965 5010 1996 5010 1996C5010 1996 5004 2041 5005 2064C5006 2087 5019.5 2121 5019.5 2121C5019.5 2121 5034 2159 5043.5 2175C5053 2191 5062 2211.5 5075.5 2226.5C5089 2241.5 5116.5 2255.5 5116.5 2255.5H5193.5H5263C5288.5 2255.5 5342 2263 5342 2263L5359 2251.5C5359 2251.5 5407.5 2215 5419.5 2201.5C5431.5 2188 5437.5 2169 5442.5 2159C5447.5 2149 5463 2125.5 5469.5 2105C5476 2084.5 5486.5 2052.5 5488.5 2024C5490.5 1995.5 5484.5 1977 5479 1947.5C5473.5 1918 5479 1877.5 5479 1877.5C5479 1877.5 5537.5 1895 5564 1904C5590.5 1913 5619 1937.5 5637.5 1947.5C5656 1957.5 5694.5 1983 5717.5 1998.5C5740.5 2014 5790 2032.5 5790 2032.5L5887 2073.5C5887 2073.5 5970.5 2126 5985 2125.5C5999.5 2125 6038 2153 6056.5 2168C6075 2183 6093 2208.5 6106 2231C6119 2253.5 6131 2285.5 6146 2325.5C6161 2365.5 6175 2406.5 6178.5 2457C6182 2507.5 6178.5 2517.5 6178.5 2550.5C6178.5 2583.5 6185.5 2640 6186 2687C6186.5 2734 6178.5 2825 6178.5 2861.5C6178.5 2898 6180.13 2934 6178.5 2949.5C6176.87 2965 6166 2979 6163 2994.5C6160 3010 6142.5 3113 6134 3150.5C6125.5 3188 6112 3277.5 6112 3277.5C6112 3277.5 6077.5 3293 6063.5 3298C6049.5 3303 6020 3323.5 5986 3336C5952 3348.5 5918.5 3347 5888 3359C5857.5 3371 5825 3378.5 5785.5 3382C5746 3385.5 5678 3397 5633 3405C5588 3413 5568.5 3409 5538.5 3411C5508.5 3413 5430.5 3420.5 5430.5 3420.5C5430.5 3420.5 5323.5 3431 5292.5 3428C5261.5 3425 5239.5 3411 5210.5 3405C5181.5 3399 5142.5 3405 5142.5 3405C5142.5 3405 5071.5 3412 5035 3411C4998.5 3410 4943 3395.5 4912.5 3391.5C4882 3387.5 4846 3375 4823 3368.5C4820.54 3367.8 4818.01 3367.07 4815.45 3366.3C4794.05 3359.9 4769.43 3351.3 4748 3345.5C4724 3339 4687.5 3331.5 4667 3327.5C4646.5 3323.5 4614.5 3313 4592 3305.5C4569.5 3298 4549.5 3283 4532.5 3275.5C4515.5 3268 4501 3264.5 4477 3253.5C4453 3242.5 4425 3218.5 4425 3218.5L4377.5 3188L4362 3113C4362 3113 4354.5 3073 4354.5 3044V2943.5C4354.5 2904 4346.5 2837.5 4346.5 2790C4346.5 2742.5 4353.5 2680.5 4354.5 2645C4355.5 2609.5 4346.5 2494.5 4346.5 2494.5C4346.5 2494.5 4342.5 2401.5 4346.5 2367.5C4350.5 2333.5 4368 2238 4368 2238C4368 2238 4378.5 2195.5 4392.5 2173C4406.5 2150.5 4442 2136.5 4442 2136.5C4442 2136.5 4468.5 2117.5 4472 2112C4475.5 2106.5 4481.5 2093 4507 2073.5C4532.5 2054 4593 2037 4593 2037L4680.5 2004.5L4774.5 1964.5L4881 1922Z" fill="#F0C93E"/>
<path d="M4406 3164.5C4406 3164.5 4404 3112 4414.5 3089.5C4425 3067 4438.5 3047 4450.5 3029C4462.5 3011 4498 2978.5 4498 2978.5L4406 3164.5ZM4498 2978.5C4503.5 2947.5 4503.5 2945 4515.5 2916.5C4527.5 2888 4538 2866.5 4547 2852C4556 2837.5 4567.5 2832.5 4567.5 2832.5L4498 2978.5ZM4498 2978.5C4496.09 3007.98 4507.5 3044 4507 3059C4506.5 3074 4493.5 3101 4498 3125.5C4502.5 3150 4522.5 3209 4522.5 3209L4498 2978.5ZM4782.5 2978.5C4763.5 2973.5 4743 2928 4731.5 2916.5C4720 2905 4698 2880.5 4689 2865C4680 2849.5 4675.5 2832.5 4675.5 2823C4675.5 2813.5 4675.5 2811.5 4675.5 2801.5C4675.5 2791.5 4667 2771 4667 2771C4667 2771 4653.5 2725 4653.5 2700.5C4653.5 2676 4667 2645 4667 2645C4667 2645 4646.5 2656.5 4639.5 2666C4632.5 2675.5 4628 2700.5 4628 2700.5C4628 2700.5 4622 2738 4615 2758C4608 2778 4590.5 2817 4583 2823C4575.5 2829 4567.5 2832.5 4567.5 2832.5L4782.5 2978.5ZM4782.5 2978.5C4782.5 2978.5 4801.5 2959 4809 2943.5C4816.5 2928 4823 2911 4823 2896.5C4823 2882 4823 2852 4823 2852C4823 2852 4818.5 2816 4823 2811.5C4827.5 2807 4844 2806.5 4857.5 2801.5C4871 2796.5 4889.5 2786 4889.5 2786C4889.5 2786 4926.5 2848 4931.5 2865C4936.5 2882 4938 2907.5 4931.5 2928L4782.5 2978.5ZM4782.5 2978.5C4782.5 2978.5 4814.5 2993.5 4829.5 2996C4844.5 2998.5 4877.5 2999 4895 2982.5C4912.5 2966 4931.5 2928 4931.5 2928L4782.5 2978.5ZM4931.5 2928C4931.5 2928 4923 2968.5 4912.5 2991.5C4902 3014.5 4882 3039 4874 3059C4866 3079 4864 3141.5 4864 3141.5L4931.5 2928ZM4864 3141.5C4870 3163 4874 3181.5 4874 3203C4874 3224.5 4872.5 3252 4864 3275.5C4855.5 3299 4815.45 3366.3 4815.45 3366.3L4864 3141.5ZM4864 3141.5C4864 3141.5 4809 3137.5 4792 3134C4775 3130.5 4731.5 3115 4715 3106.5C4698.5 3098 4663 3070 4653.5 3059C4644 3048 4624.5 3020.5 4615 3004.5C4605.5 2988.5 4589 2949 4583 2928C4577 2907 4567.5 2832.5 4567.5 2832.5L4864 3141.5ZM4815.45 3366.3C4794.05 3359.9 4769.43 3351.3 4748 3345.5C4724 3339 4687.5 3331.5 4667 3327.5C4646.5 3323.5 4614.5 3313 4592 3305.5C4569.5 3298 4549.5 3283 4532.5 3275.5C4515.5 3268 4501 3264.5 4477 3253.5C4453 3242.5 4425 3218.5 4425 3218.5L4377.5 3188L4362 3113C4362 3113 4354.5 3073 4354.5 3044C4354.5 3015 4354.5 2983 4354.5 2943.5C4354.5 2904 4346.5 2837.5 4346.5 2790C4346.5 2742.5 4353.5 2680.5 4354.5 2645C4355.5 2609.5 4346.5 2494.5 4346.5 2494.5C4346.5 2494.5 4342.5 2401.5 4346.5 2367.5C4350.5 2333.5 4368 2238 4368 2238C4368 2238 4378.5 2195.5 4392.5 2173C4406.5 2150.5 4442 2136.5 4442 2136.5C4442 2136.5 4468.5 2117.5 4472 2112C4475.5 2106.5 4481.5 2093 4507 2073.5C4532.5 2054 4593 2037 4593 2037L4680.5 2004.5L4774.5 1964.5L4881 1922L4992.5 1894.5L5014 1915.5C5014 1915.5 5014 1921 5014 1943C5014 1965 5010 1996 5010 1996C5010 1996 5004 2041 5005 2064C5006 2087 5019.5 2121 5019.5 2121C5019.5 2121 5034 2159 5043.5 2175C5053 2191 5062 2211.5 5075.5 2226.5C5089 2241.5 5116.5 2255.5 5116.5 2255.5C5116.5 2255.5 5158 2255.5 5193.5 2255.5C5229 2255.5 5237.5 2255.5 5263 2255.5C5288.5 2255.5 5342 2263 5342 2263L5359 2251.5C5359 2251.5 5407.5 2215 5419.5 2201.5C5431.5 2188 5437.5 2169 5442.5 2159C5447.5 2149 5463 2125.5 5469.5 2105C5476 2084.5 5486.5 2052.5 5488.5 2024C5490.5 1995.5 5484.5 1977 5479 1947.5C5473.5 1918 5479 1877.5 5479 1877.5C5479 1877.5 5537.5 1895 5564 1904C5590.5 1913 5619 1937.5 5637.5 1947.5C5656 1957.5 5694.5 1983 5717.5 1998.5C5740.5 2014 5790 2032.5 5790 2032.5L5887 2073.5C5887 2073.5 5970.5 2126 5985 2125.5C5999.5 2125 6038 2153 6056.5 2168C6075 2183 6093 2208.5 6106 2231C6119 2253.5 6131 2285.5 6146 2325.5C6161 2365.5 6175 2406.5 6178.5 2457C6182 2507.5 6178.5 2517.5 6178.5 2550.5C6178.5 2583.5 6185.5 2640 6186 2687C6186.5 2734 6178.5 2825 6178.5 2861.5C6178.5 2898 6180.13 2934 6178.5 2949.5C6176.87 2965 6166 2979 6163 2994.5C6160 3010 6142.5 3113 6134 3150.5C6125.5 3188 6112 3277.5 6112 3277.5C6112 3277.5 6077.5 3293 6063.5 3298C6049.5 3303 6020 3323.5 5986 3336C5952 3348.5 5918.5 3347 5888 3359C5857.5 3371 5825 3378.5 5785.5 3382C5746 3385.5 5678 3397 5633 3405C5588 3413 5568.5 3409 5538.5 3411C5508.5 3413 5430.5 3420.5 5430.5 3420.5C5430.5 3420.5 5323.5 3431 5292.5 3428C5261.5 3425 5239.5 3411 5210.5 3405C5181.5 3399 5142.5 3405 5142.5 3405C5142.5 3405 5071.5 3412 5035 3411C4998.5 3410 4943 3395.5 4912.5 3391.5C4882 3387.5 4846 3375 4823 3368.5C4820.54 3367.8 4818.01 3367.07 4815.45 3366.3Z" stroke="#8C6D00" stroke-width="3"/>
<path d="M5819.5 2895C5819.5 2895 5855.5 2903 5868 2908C5880.5 2913 5896 2919 5910 2934.5C5924 2950 5947 2980.5 5947 2980.5L5975.5 3029L6019.5 3098.5M5634.5 3403C5634.5 3403 5621 3351 5613.5 3341.5C5606 3332 5594.5 3319 5588 3292.5C5581.5 3266 5588 3257 5588 3257L5634.5 3403ZM5532 3105C5532 3105 5562.5 3137.5 5568 3152.5C5573.5 3167.5 5588 3212.5 5588 3221.5C5588 3230.5 5588 3257 5588 3257L5532 3105ZM5532 3105C5532 3105 5509 3063.5 5503 3046.5C5497 3029.5 5493.5 3010 5495.5 2985C5497.5 2960 5515.5 2942.5 5515.5 2942.5C5515.5 2942.5 5535.5 2905.5 5548 2895C5560.5 2884.5 5588 2873.5 5588 2873.5V2928.5V2975L5603 3029L5621 3081.5L5644.5 3105H5532ZM5532 3105C5532 3105 5556 3126.5 5568 3131.5C5580 3136.5 5608 3131.5 5608 3131.5L5644.5 3105H5532ZM5644.5 3105L5678.5 3090L5707 3029L5741 2960L5763.5 2895L5773.5 2833.5V2781C5773.5 2781 5799.5 2817.5 5809.5 2833.5C5819.5 2849.5 5819.5 2895 5819.5 2895L5644.5 3105ZM5819.5 2895C5819.5 2895 5852.5 2939 5856 2960C5859.5 2981 5864 3011.5 5863.5 3029C5863 3046.5 5856 3098 5844.5 3115C5833 3132 5801 3181.5 5801 3181.5L5741 3236.5L5678.5 3271.5C5678.5 3271.5 5654.5 3288 5634.5 3284C5614.5 3280 5588 3257 5588 3257L5819.5 2895Z" stroke="#8C6D00" stroke-width="3"/>
<path d="M4668 2513C4668 2513 4715.5 2574.5 4722.5 2565C4729.5 2555.5 4668 2475 4661.5 2455C4655 2435 4651.5 2389.5 4640 2395.5C4628.5 2401.5 4631 2403.5 4631 2422C4631 2440.5 4668 2513 4668 2513Z" fill="#BC9B24"/>
<path d="M4603.5 2565C4618.5 2580.5 4678 2616 4688 2608C4698 2600 4648.5 2565 4631 2549.5C4613.5 2534 4577 2485 4577 2485L4520 2436C4520 2436 4482 2404.5 4473 2411.5C4464 2418.5 4481 2453.5 4506 2475C4531 2496.5 4588.5 2549.5 4603.5 2565Z" fill="#BC9B24"/>
<path d="M5092 3058.5C5046 3058 4898.5 3073.5 4898.5 3073.5C4898.5 3073.5 4922.5 3033 4988 3015.5C5053.5 2998 5061 3019 5102 3033C5143 3047 5231 3066 5231 3066L5413.5 3113C5413.5 3113 5273.5 3100.5 5231 3089C5188.5 3077.5 5138 3059 5092 3058.5Z" fill="#BC9B24"/>
<path d="M4668 2513C4668 2513 4715.5 2574.5 4722.5 2565C4729.5 2555.5 4668 2475 4661.5 2455C4655 2435 4651.5 2389.5 4640 2395.5C4628.5 2401.5 4631 2403.5 4631 2422C4631 2440.5 4668 2513 4668 2513Z" stroke="#BC9B24"/>
<path d="M4603.5 2565C4618.5 2580.5 4678 2616 4688 2608C4698 2600 4648.5 2565 4631 2549.5C4613.5 2534 4577 2485 4577 2485L4520 2436C4520 2436 4482 2404.5 4473 2411.5C4464 2418.5 4481 2453.5 4506 2475C4531 2496.5 4588.5 2549.5 4603.5 2565Z" stroke="#BC9B24"/>
<path d="M5092 3058.5C5046 3058 4898.5 3073.5 4898.5 3073.5C4898.5 3073.5 4922.5 3033 4988 3015.5C5053.5 2998 5061 3019 5102 3033C5143 3047 5231 3066 5231 3066L5413.5 3113C5413.5 3113 5273.5 3100.5 5231 3089C5188.5 3077.5 5138 3059 5092 3058.5Z" stroke="#BC9B24"/>
<path d="M4999 1902C4999 1902 4978 1922.5 4965.5 1935.5C4953 1948.5 4935.5 1974 4931 1987C4926.5 2000 4920.5 2028.5 4921 2044C4921.5 2059.5 4931 2120.5 4938 2139C4945 2157.5 4955 2177.5 4960.5 2191.5C4966 2205.5 4974.5 2231 4983 2242.5C4991.5 2254 5010.5 2270 5010.5 2270L5459 2276C5459 2276 5492.5 2246 5504.5 2226C5516.5 2206 5531.5 2175.5 5543.5 2149C5555.5 2122.5 5560.5 2104.5 5563.5 2075.5C5566.5 2046.5 5560.5 2018 5555.5 1994.5C5550.5 1971 5552 1965 5543.5 1942.5C5535 1920 5504.5 1890.5 5504.5 1890.5" stroke="#8C6D00" stroke-width="3"/>
<path d="M5739.5 2684L5781.5 2677C5781.5 2677 5815.5 2672.5 5834.5 2668.5C5853.5 2664.5 5875 2660.5 5888 2657.5C5901 2654.5 5913.5 2655.5 5933 2647.5C5952.5 2639.5 5977.5 2621 5977.5 2621M5987 2143C5987 2143 5962 2153.5 5946 2171.5C5930 2189.5 5907.5 2229.5 5897.5 2246.5C5887.5 2263.5 5858.5 2317 5850.5 2339C5842.5 2361 5826.5 2396 5824 2408.5C5821.5 2421 5824 2427.5 5824 2438C5824 2448.5 5807 2505 5807 2505C5807 2505 5784.5 2569.5 5781.5 2581.5C5778.5 2593.5 5781.5 2615 5781.5 2615L5987 2143ZM5781.5 2615C5771 2626 5766 2641.5 5762 2647.5C5758 2653.5 5744 2672 5739.5 2684L5781.5 2615ZM5781.5 2615C5781.5 2615 5818.5 2579.5 5824 2574C5829.5 2568.5 5840 2552.5 5858.5 2538.5C5877 2524.5 5878.5 2522 5898 2510C5917.5 2498 5933 2492.5 5933 2492.5L5781.5 2615ZM5739.5 2684C5734.5 2690 5734.5 2703.5 5734.5 2703.5L5739.5 2684Z" stroke="#8C6D00" stroke-width="3"/>
<path d="M4673.5 2606C4673.5 2606 4634.5 2596 4614 2578C4593.5 2560 4539 2506.5 4539 2506.5C4539 2506.5 4500 2472.5 4491 2461C4482 2449.5 4463.5 2419.5 4469.5 2411.5C4475.5 2403.5 4491 2420.5 4491 2420.5M4485.5 2100C4485.5 2100 4515 2123.5 4528.5 2127C4542 2130.5 4561.5 2134.5 4574 2143C4586.5 2151.5 4613.5 2175 4630.5 2197C4647.5 2219 4673.5 2272 4673.5 2272C4673.5 2272 4689.5 2304.5 4699.5 2328.5C4709.5 2352.5 4721 2411.5 4721 2411.5C4721 2411.5 4737 2482.5 4737 2499.5C4737 2516.5 4737 2527 4737 2527L4485.5 2100ZM4721 2567.5C4721 2567.5 4691 2541.5 4680.5 2527C4670 2512.5 4653 2482.5 4653 2482.5C4653 2482.5 4636 2457 4630.5 2439.5C4625 2422 4627 2406 4630.5 2397.5C4634 2389 4642 2396 4647.5 2399C4653 2402 4673.5 2420.5 4673.5 2420.5L4721 2567.5ZM4485.5 2385.5C4491 2373 4519.5 2402 4519.5 2402L4545.5 2429.5L4600 2490.5L4647.5 2541.5L4680.5 2581.5L4699.5 2606L4485.5 2385.5Z" stroke="#8C6D00" stroke-width="3"/>
<path d="M4877.5 3232C4877.5 3232 5027 3222 5075 3217C5123 3212 5163.5 3210.5 5202 3210.5C5240.5 3210.5 5367.5 3233.5 5409.5 3240C5451.5 3246.5 5549 3273.5 5548 3266.5C5547 3259.5 5404.5 3225 5356.5 3217C5308.5 3209 5252.5 3196.5 5223.5 3190.5C5194.5 3184.5 5179.5 3196.5 5146 3190.5C5112.5 3184.5 5026 3157.5 5026 3157.5L4910.5 3124.5" stroke="#8C6D00" stroke-width="3"/>
<path d="M4823.5 2865.5V2827.5C4823.5 2827.5 4823.5 2813.5 4827.5 2811.5C4831.5 2809.5 4853 2807.5 4860 2804.5C4867 2801.5 4880 2794.5 4880 2794.5L4890.5 2787L4912 2825.5C4912 2825.5 4923.5 2845.5 4928.5 2858C4933.5 2870.5 4935.5 2882 4935.5 2892.5C4935.5 2903 4934.5 2920.5 4930 2931C4925.5 2941.5 4910.5 2962.5 4906.5 2969.5C4902.5 2976.5 4890.5 2986 4881.5 2991.5C4872.5 2997 4855.5 2996 4846.5 2997C4837.5 2998 4821 2995 4813 2991.5C4805 2988 4783.5 2979 4783.5 2979C4783.5 2979 4799.5 2966 4805 2958.5C4810.5 2951 4816 2935 4816 2935C4816 2935 4821.5 2914 4823.5 2902.5C4825.5 2891 4823.5 2865.5 4823.5 2865.5Z" fill="#BC9B24"/>
<path d="M5559 2887C5567 2882.5 5583 2875.5 5583 2875.5V2900C5583 2914 5585 2934.5 5585 2934.5L5589 2966.5C5589 2966.5 5591.5 2985.5 5593.5 2992.5C5595.5 2999.5 5603 3025 5603 3025L5611.5 3054.5C5611.5 3054.5 5619 3078 5623 3086.5C5627 3095 5636 3109.5 5636 3109.5L5619 3124C5619 3124 5606.5 3133.5 5593.5 3134.5C5580.5 3135.5 5565 3130 5565 3130C5565 3130 5551.5 3124 5545 3117C5538.5 3110 5529 3103 5525 3095.5C5521 3088 5514.5 3077.5 5511.5 3067C5508.5 3056.5 5504.5 3050.5 5499.5 3033.5C5494.5 3016.5 5495 2999.5 5495 2999.5C5495 2999.5 5495 2981 5499.5 2966.5C5504 2952 5508.5 2951 5514.5 2944.5C5520.5 2938 5525 2929.5 5525 2929.5C5525 2929.5 5533 2912.5 5538.5 2904.5C5544 2896.5 5551 2891.5 5559 2887Z" fill="#BC9B24"/>
<path d="M4823.5 2865.5V2827.5C4823.5 2827.5 4823.5 2813.5 4827.5 2811.5C4831.5 2809.5 4853 2807.5 4860 2804.5C4867 2801.5 4880 2794.5 4880 2794.5L4890.5 2787L4912 2825.5C4912 2825.5 4923.5 2845.5 4928.5 2858C4933.5 2870.5 4935.5 2882 4935.5 2892.5C4935.5 2903 4934.5 2920.5 4930 2931C4925.5 2941.5 4910.5 2962.5 4906.5 2969.5C4902.5 2976.5 4890.5 2986 4881.5 2991.5C4872.5 2997 4855.5 2996 4846.5 2997C4837.5 2998 4821 2995 4813 2991.5C4805 2988 4783.5 2979 4783.5 2979C4783.5 2979 4799.5 2966 4805 2958.5C4810.5 2951 4816 2935 4816 2935C4816 2935 4821.5 2914 4823.5 2902.5C4825.5 2891 4823.5 2865.5 4823.5 2865.5Z" stroke="#BC9B24" stroke-width="3"/>
<path d="M5559 2887C5567 2882.5 5583 2875.5 5583 2875.5V2900C5583 2914 5585 2934.5 5585 2934.5L5589 2966.5C5589 2966.5 5591.5 2985.5 5593.5 2992.5C5595.5 2999.5 5603 3025 5603 3025L5611.5 3054.5C5611.5 3054.5 5619 3078 5623 3086.5C5627 3095 5636 3109.5 5636 3109.5L5619 3124C5619 3124 5606.5 3133.5 5593.5 3134.5C5580.5 3135.5 5565 3130 5565 3130C5565 3130 5551.5 3124 5545 3117C5538.5 3110 5529 3103 5525 3095.5C5521 3088 5514.5 3077.5 5511.5 3067C5508.5 3056.5 5504.5 3050.5 5499.5 3033.5C5494.5 3016.5 5495 2999.5 5495 2999.5C5495 2999.5 5495 2981 5499.5 2966.5C5504 2952 5508.5 2951 5514.5 2944.5C5520.5 2938 5525 2929.5 5525 2929.5C5525 2929.5 5533 2912.5 5538.5 2904.5C5544 2896.5 5551 2891.5 5559 2887Z" stroke="#BC9B24" stroke-width="3"/>
<path d="M5002 2061C5000.5 2042 5008 2001 5010 1990.5C5012 1980 5012.5 1965 5012.5 1955.5V1915C5012.5 1915 5035 1939.5 5041.5 1949C5048 1958.5 5061.5 1982.5 5065.5 1993C5069.5 2003.5 5072.5 2016.5 5072.5 2016.5C5072.5 2016.5 5082.5 2044 5092.5 2053.5C5102.5 2063 5125.5 2070 5125.5 2070C5125.5 2070 5147 2083.5 5163 2088.5C5179 2093.5 5196.5 2095 5210.5 2097.5C5224.5 2100 5255 2100.5 5268 2097.5C5281 2094.5 5313.5 2087.5 5323.5 2078.5C5333.5 2069.5 5339.5 2058 5352.5 2045.5C5365.5 2033 5384.5 2012.5 5384.5 2012.5L5415.5 1981.5C5415.5 1981.5 5439.5 1951.5 5445 1942C5450.5 1932.5 5453.5 1911.5 5457 1903.5C5460.5 1895.5 5479 1873.5 5479 1873.5C5479 1873.5 5477.5 1929 5480.5 1946C5483.5 1963 5488 1981.5 5490.5 1995C5493 2008.5 5488 2036 5485 2051.5C5482 2067 5477 2089 5470 2108C5463 2127 5456.5 2139 5447.5 2154C5438.5 2169 5432 2186.5 5429.5 2191.5C5427 2196.5 5413 2213 5397.5 2225C5382 2237 5338 2268 5338 2268H5236.5L5118 2257.5C5118 2257.5 5089 2244.5 5072.5 2225C5056 2205.5 5054 2192.5 5043 2176C5032 2159.5 5019.5 2123 5015 2112C5010.5 2101 5003.5 2080 5002 2061Z" fill="#FFE1D8" stroke="#FFE1D8"/>
<path d="M5011 1983.5C5015 1955 5011 1916 5011 1916L5205.5 2099.5C5205.5 2099.5 5189.5 2106 5187 2117C5184.5 2128 5198 2146 5193.5 2148.5C5189 2151 5128.5 2113.5 5092 2106.5C5055.5 2099.5 5013.5 2108.5 5013.5 2108.5C5013.5 2108.5 4999.5 2078 5001 2050.5C5002.5 2023 5007 2012 5011 1983.5Z" fill="#ECCDC4" stroke="#ECCDC4"/>
<path d="M5033 2261C5020 2263.5 5006.5 2275 5006.5 2275L4910 2386.5V2473.5L5035.5 2479.5L5133 2550.5C5133 2550.5 5148.5 2559 5215 2559C5281.5 2559 5302 2550.5 5302 2550.5L5388.5 2473.5L5514 2469L5536 2437L5411 2275C5411 2275 5351 2261 5326.5 2258.5C5302 2256 5240.5 2253.5 5208 2253C5175.5 2252.5 5117.5 2258 5097.5 2258.5C5077.5 2259 5046 2258.5 5033 2261Z" fill="#DFDFDF" stroke="#C4C4C4"/>
<path d="M4974.5 2396C4970 2389.5 4967.5 2364.5 4967.5 2364.5L4995.5 2346.5L5052 2355.5C5052 2355.5 5048.5 2379 5043.5 2386C5038.5 2393 5030.5 2403 5017.5 2407C5004.5 2411 4991.5 2410 4985 2407C4978.5 2404 4979 2402.5 4974.5 2396Z" fill="#F57B23"/>
<path d="M5384.5 2403.5C5373 2394.5 5373 2368.5 5373 2368.5L5416 2347.5L5455 2364.5C5455 2364.5 5453 2384 5448.5 2392C5444 2400 5440.5 2404 5433.5 2407C5426.5 2410 5396 2412.5 5384.5 2403.5Z" fill="#F57B23"/>
<path d="M5459 2439C5462.5 2436 5469.5 2429.5 5473.5 2433C5477.5 2436.5 5477 2443.5 5473.5 2448C5470 2452.5 5462.5 2453.5 5459 2450.5C5455.5 2447.5 5455.5 2442 5459 2439Z" fill="#F57B23"/>
<path d="M5327 2415C5326 2411 5329.5 2407 5337 2407C5344.5 2407 5344.5 2412.5 5344.5 2412.5C5344.5 2412.5 5344.5 2419.5 5337 2420C5329.5 2420.5 5328 2419 5327 2415Z" fill="#F57B23"/>
<path d="M5078 2420C5075 2415 5078 2413 5080.5 2410C5083 2407 5086.5 2404 5090.5 2407C5094.5 2410 5094.5 2417 5090.5 2420C5086.5 2423 5081 2425 5078 2420Z" fill="#F57B23"/>
<path d="M4952 2447.5C4952 2447.5 4942 2437.5 4948 2432.5C4954 2427.5 4962 2441 4962 2441C4962 2441 4971 2448.5 4965 2453C4959 2457.5 4952 2447.5 4952 2447.5Z" fill="#F57B23"/>
<path d="M5150 2308C5150 2308 5183 2304.5 5200 2304.5C5217 2304.5 5216.5 2304.5 5242.5 2304.5C5268.5 2304.5 5290.5 2308 5290.5 2308H5150ZM4967.5 2364.5C4967.5 2364.5 4970 2389.5 4974.5 2396C4979 2402.5 4978.5 2404 4985 2407C4991.5 2410 5004.5 2411 5017.5 2407C5030.5 2403 5038.5 2393 5043.5 2386C5048.5 2379 5052 2355.5 5052 2355.5L4995.5 2346.5L4967.5 2364.5ZM5373 2368.5C5373 2368.5 5373 2394.5 5384.5 2403.5C5396 2412.5 5426.5 2410 5433.5 2407C5440.5 2404 5444 2400 5448.5 2392C5453 2384 5455 2364.5 5455 2364.5L5416 2347.5L5373 2368.5ZM5473.5 2433C5469.5 2429.5 5462.5 2436 5459 2439C5455.5 2442 5455.5 2447.5 5459 2450.5C5462.5 2453.5 5470 2452.5 5473.5 2448C5477 2443.5 5477.5 2436.5 5473.5 2433ZM5337 2407C5329.5 2407 5326 2411 5327 2415C5328 2419 5329.5 2420.5 5337 2420C5344.5 2419.5 5344.5 2412.5 5344.5 2412.5C5344.5 2412.5 5344.5 2407 5337 2407ZM5080.5 2410C5078 2413 5075 2415 5078 2420C5081 2425 5086.5 2423 5090.5 2420C5094.5 2417 5094.5 2410 5090.5 2407C5086.5 2404 5083 2407 5080.5 2410ZM4948 2432.5C4942 2437.5 4952 2447.5 4952 2447.5C4952 2447.5 4959 2457.5 4965 2453C4971 2448.5 4962 2441 4962 2441C4962 2441 4954 2427.5 4948 2432.5Z" stroke="#F57B23" stroke-width="3"/>
<path d="M4695.5 2611C4688.5 2618 4672.5 2634.5 4667 2645C4661.5 2655.5 4658.5 2663.5 4655 2679C4651.5 2694.5 4651 2713.5 4655 2739C4659 2764.5 4669 2791.5 4669 2803.5V2826.5C4669 2835.5 4683 2861.5 4683 2861.5C4683 2861.5 4702 2884 4713 2897.5C4724 2911 4730 2918 4737 2929C4744 2940 4748.5 2950.5 4758.5 2960C4768.5 2969.5 4781 2980 4781 2980C4781 2980 4805 2962 4810 2950C4815 2938 4820.5 2922.5 4822.5 2905C4824.5 2887.5 4826.5 2859.5 4826.5 2851.5C4826.5 2843.5 4822.5 2819.5 4826.5 2813C4830.5 2806.5 4852 2806.5 4860.5 2803.5C4869 2800.5 4884 2791.5 4890 2785C4896 2778.5 4912.5 2764 4919.5 2759.5C4926.5 2755 4955.5 2747 4955.5 2747C4955.5 2747 4990 2736.5 4999.5 2734C5009 2731.5 5023.5 2722.5 5032 2712.5C5040.5 2702.5 5053 2689 5055.5 2675C5058 2661 5059.5 2654 5059.5 2654C5059.5 2654 5073.5 2646 5077.5 2640C5081.5 2634 5088.5 2624 5088.5 2615C5088.5 2606 5084.5 2593.5 5084.5 2593.5C5084.5 2593.5 5093 2604 5104 2604C5115 2604 5127 2593.5 5131 2585.5C5135 2577.5 5136.5 2569 5131 2552.5C5125.5 2536 5104 2511 5104 2511C5104 2511 5076.5 2479 5069 2474.5C5061.5 2470 5052 2466 5038 2463C5024 2460 5000 2459.5 4987 2459.5C4974 2459.5 4955.5 2463 4947 2463H4919.5C4919.5 2463 4909 2432.5 4911 2423.5C4913 2414.5 4929.5 2401 4936.5 2394C4943.5 2387 4943 2375.5 4952 2371.5C4961 2367.5 4981 2352 5003 2350.5C5025 2349 5095 2360 5104 2359C5113 2358 5131 2351 5136.5 2346C5142 2341 5149.5 2332 5150.5 2321C5151.5 2310 5145.5 2298.5 5136.5 2291C5127.5 2283.5 5088.5 2283 5062 2280C5035.5 2277 5017 2276.5 5003 2277C4989 2277.5 4954 2280 4936.5 2280C4919 2280 4904 2286 4890 2298.5C4876 2311 4868 2329.5 4855 2346C4842 2362.5 4831 2367.5 4831 2367.5C4831 2367.5 4806 2385.5 4795.5 2394C4785 2402.5 4778.5 2423.5 4778.5 2423.5C4774.5 2430.5 4769.5 2471 4766 2481.5C4762.5 2492 4753.5 2499 4749 2506.5C4744.5 2514 4738 2539 4738 2539C4738 2539 4728 2570.5 4719 2584C4710 2597.5 4702.5 2604 4695.5 2611Z" fill="#FFE1D8"/>
<path d="M5750.5 2729.5C5757 2741.5 5772.5 2781 5772.5 2781C5772.5 2781 5776.5 2806.5 5776.5 2833.5C5776.5 2860.5 5776 2867 5772.5 2881.5C5769 2896 5756 2924.5 5750.5 2939C5745 2953.5 5734.5 2982.5 5729.5 2995.5C5724.5 3008.5 5701.5 3052.5 5694 3065C5686.5 3077.5 5689 3081 5679 3090C5669 3099 5645 3111.5 5636.5 3109C5628 3106.5 5632 3103.5 5625.5 3092C5619 3080.5 5605 3032.5 5605 3032.5C5605 3032.5 5593 2999.5 5590 2977C5587 2954.5 5583.5 2930 5583.5 2915.5V2871.5C5583.5 2858.5 5576.5 2839.5 5570.5 2833.5C5564.5 2827.5 5553 2826 5544 2822C5535 2818 5520 2805.5 5520 2805.5C5520 2805.5 5507 2790.5 5500 2776C5493 2761.5 5495.5 2751.5 5495.5 2751.5C5495.5 2751.5 5465.5 2754.5 5452 2751.5C5438.5 2748.5 5399.5 2725 5399.5 2725C5399.5 2725 5393.5 2723 5387.5 2714C5381.5 2705 5381.5 2670 5381.5 2670H5364C5355.5 2670 5347 2653.5 5347 2653.5C5347 2653.5 5338 2645 5338 2632C5338 2619 5347 2610 5347 2610C5347 2610 5330 2597 5323 2593.5C5323 2593.5 5298 2561 5302.5 2540C5307 2519 5323 2511 5323 2511C5323 2511 5351.5 2492 5359.5 2484C5367.5 2476 5399.5 2468.5 5399.5 2468.5C5399.5 2468.5 5433.5 2461.5 5452 2461.5H5512C5519.5 2461.5 5525.5 2450.5 5525.5 2441.5C5525.5 2432.5 5520 2420.5 5520 2420.5C5520 2420.5 5493 2377.5 5480 2371.5C5467 2365.5 5463 2364 5452 2364C5441 2364 5429 2361 5423 2357.5C5417 2354 5399.5 2357.5 5399.5 2357.5C5399.5 2357.5 5382.5 2367 5371 2367H5323C5323 2367 5278 2349 5282 2327.5C5286 2306 5302.5 2301.5 5302.5 2301.5C5302.5 2301.5 5340.5 2288 5359.5 2285C5378.5 2282 5394.5 2278 5413.5 2278H5493C5507 2278 5528 2285.5 5534 2291C5540 2296.5 5557.5 2315.5 5570.5 2327.5C5583.5 2339.5 5626 2373 5636.5 2381C5647 2389 5653.5 2398 5655.5 2405.5C5657.5 2413 5661.5 2437 5661.5 2447C5661.5 2457 5662.5 2465.5 5666.5 2473.5C5670.5 2481.5 5672.5 2491.5 5677.5 2497.5C5682.5 2503.5 5682.5 2514 5682.5 2525.5C5682.5 2537 5679.5 2541.5 5682.5 2547C5685.5 2552.5 5687.5 2562 5687.5 2567V2585.5C5687.5 2585.5 5690 2620.5 5694 2632C5698 2643.5 5715.5 2660 5720 2674.5C5724.5 2689 5726 2702 5729.5 2710C5733 2718 5744 2717.5 5750.5 2729.5Z" fill="#FFE1D8"/>
<path d="M4695.5 2611C4688.5 2618 4672.5 2634.5 4667 2645C4661.5 2655.5 4658.5 2663.5 4655 2679C4651.5 2694.5 4651 2713.5 4655 2739C4659 2764.5 4669 2791.5 4669 2803.5V2826.5C4669 2835.5 4683 2861.5 4683 2861.5C4683 2861.5 4702 2884 4713 2897.5C4724 2911 4730 2918 4737 2929C4744 2940 4748.5 2950.5 4758.5 2960C4768.5 2969.5 4781 2980 4781 2980C4781 2980 4805 2962 4810 2950C4815 2938 4820.5 2922.5 4822.5 2905C4824.5 2887.5 4826.5 2859.5 4826.5 2851.5C4826.5 2843.5 4822.5 2819.5 4826.5 2813C4830.5 2806.5 4852 2806.5 4860.5 2803.5C4869 2800.5 4884 2791.5 4890 2785C4896 2778.5 4912.5 2764 4919.5 2759.5C4926.5 2755 4955.5 2747 4955.5 2747C4955.5 2747 4990 2736.5 4999.5 2734C5009 2731.5 5023.5 2722.5 5032 2712.5C5040.5 2702.5 5053 2689 5055.5 2675C5058 2661 5059.5 2654 5059.5 2654C5059.5 2654 5073.5 2646 5077.5 2640C5081.5 2634 5088.5 2624 5088.5 2615C5088.5 2606 5084.5 2593.5 5084.5 2593.5C5084.5 2593.5 5093 2604 5104 2604C5115 2604 5127 2593.5 5131 2585.5C5135 2577.5 5136.5 2569 5131 2552.5C5125.5 2536 5104 2511 5104 2511C5104 2511 5076.5 2479 5069 2474.5C5061.5 2470 5052 2466 5038 2463C5024 2460 5000 2459.5 4987 2459.5C4974 2459.5 4955.5 2463 4947 2463H4919.5C4919.5 2463 4909 2432.5 4911 2423.5C4913 2414.5 4929.5 2401 4936.5 2394C4943.5 2387 4943 2375.5 4952 2371.5C4961 2367.5 4981 2352 5003 2350.5C5025 2349 5095 2360 5104 2359C5113 2358 5131 2351 5136.5 2346C5142 2341 5149.5 2332 5150.5 2321C5151.5 2310 5145.5 2298.5 5136.5 2291C5127.5 2283.5 5088.5 2283 5062 2280C5035.5 2277 5017 2276.5 5003 2277C4989 2277.5 4954 2280 4936.5 2280C4919 2280 4904 2286 4890 2298.5C4876 2311 4868 2329.5 4855 2346C4842 2362.5 4831 2367.5 4831 2367.5C4831 2367.5 4806 2385.5 4795.5 2394C4785 2402.5 4778.5 2423.5 4778.5 2423.5C4774.5 2430.5 4769.5 2471 4766 2481.5C4762.5 2492 4753.5 2499 4749 2506.5C4744.5 2514 4738 2539 4738 2539C4738 2539 4728 2570.5 4719 2584C4710 2597.5 4702.5 2604 4695.5 2611Z" stroke="#FFE1D8"/>
<path d="M5750.5 2729.5C5757 2741.5 5772.5 2781 5772.5 2781C5772.5 2781 5776.5 2806.5 5776.5 2833.5C5776.5 2860.5 5776 2867 5772.5 2881.5C5769 2896 5756 2924.5 5750.5 2939C5745 2953.5 5734.5 2982.5 5729.5 2995.5C5724.5 3008.5 5701.5 3052.5 5694 3065C5686.5 3077.5 5689 3081 5679 3090C5669 3099 5645 3111.5 5636.5 3109C5628 3106.5 5632 3103.5 5625.5 3092C5619 3080.5 5605 3032.5 5605 3032.5C5605 3032.5 5593 2999.5 5590 2977C5587 2954.5 5583.5 2930 5583.5 2915.5V2871.5C5583.5 2858.5 5576.5 2839.5 5570.5 2833.5C5564.5 2827.5 5553 2826 5544 2822C5535 2818 5520 2805.5 5520 2805.5C5520 2805.5 5507 2790.5 5500 2776C5493 2761.5 5495.5 2751.5 5495.5 2751.5C5495.5 2751.5 5465.5 2754.5 5452 2751.5C5438.5 2748.5 5399.5 2725 5399.5 2725C5399.5 2725 5393.5 2723 5387.5 2714C5381.5 2705 5381.5 2670 5381.5 2670H5364C5355.5 2670 5347 2653.5 5347 2653.5C5347 2653.5 5338 2645 5338 2632C5338 2619 5347 2610 5347 2610C5347 2610 5330 2597 5323 2593.5C5323 2593.5 5298 2561 5302.5 2540C5307 2519 5323 2511 5323 2511C5323 2511 5351.5 2492 5359.5 2484C5367.5 2476 5399.5 2468.5 5399.5 2468.5C5399.5 2468.5 5433.5 2461.5 5452 2461.5H5512C5519.5 2461.5 5525.5 2450.5 5525.5 2441.5C5525.5 2432.5 5520 2420.5 5520 2420.5C5520 2420.5 5493 2377.5 5480 2371.5C5467 2365.5 5463 2364 5452 2364C5441 2364 5429 2361 5423 2357.5C5417 2354 5399.5 2357.5 5399.5 2357.5C5399.5 2357.5 5382.5 2367 5371 2367H5323C5323 2367 5278 2349 5282 2327.5C5286 2306 5302.5 2301.5 5302.5 2301.5C5302.5 2301.5 5340.5 2288 5359.5 2285C5378.5 2282 5394.5 2278 5413.5 2278H5493C5507 2278 5528 2285.5 5534 2291C5540 2296.5 5557.5 2315.5 5570.5 2327.5C5583.5 2339.5 5626 2373 5636.5 2381C5647 2389 5653.5 2398 5655.5 2405.5C5657.5 2413 5661.5 2437 5661.5 2447C5661.5 2457 5662.5 2465.5 5666.5 2473.5C5670.5 2481.5 5672.5 2491.5 5677.5 2497.5C5682.5 2503.5 5682.5 2514 5682.5 2525.5C5682.5 2537 5679.5 2541.5 5682.5 2547C5685.5 2552.5 5687.5 2562 5687.5 2567V2585.5C5687.5 2585.5 5690 2620.5 5694 2632C5698 2643.5 5715.5 2660 5720 2674.5C5724.5 2689 5726 2702 5729.5 2710C5733 2718 5744 2717.5 5750.5 2729.5Z" stroke="#FFE1D8"/>
<path d="M4909 2302.5C4915.5 2296 4897.5 2293 4897.5 2293C4897.5 2293 4887 2297 4883.5 2302.5C4880 2308 4861 2337 4861 2337L4844 2357.5C4844 2357.5 4801.5 2383.5 4786.5 2404.5C4771.5 2425.5 4772 2467 4763.5 2484.5C4755 2502 4750.5 2498.5 4745 2512C4739.5 2525.5 4728 2570 4723.5 2577.5C4719 2585 4707 2599 4707 2599C4707 2599 4673.5 2632 4667 2642C4660.5 2652 4659 2665.5 4654 2682C4649 2698.5 4651.5 2719.5 4654 2734C4656.5 2748.5 4665 2784.5 4667 2796.5C4669 2808.5 4667 2818 4669.5 2831.5C4672 2845 4683.5 2862.5 4689.5 2870.5C4695.5 2878.5 4700.5 2886 4719 2905.5C4737.5 2925 4733 2932.5 4749.5 2951.5C4766 2970.5 4783 2980.5 4783 2980.5C4783 2980.5 4800 2967.5 4807.5 2955.5C4815 2943.5 4822.5 2924 4825.5 2897.5C4828.5 2871 4825.5 2847 4825.5 2847C4825.5 2847 4824.5 2821 4828 2813C4831.5 2805 4857 2806.5 4870.5 2800C4884 2793.5 4905.5 2768 4921.5 2760C4937.5 2752 4953.5 2748.5 4967 2744.5C4980.5 2740.5 5020 2724.5 5020 2724.5C5020 2724.5 4997.5 2730.5 4979.5 2734C4961.5 2737.5 4909 2734 4909 2734C4909 2734 4881 2736 4866 2734C4851 2732 4844 2724.5 4844 2724.5C4844 2724.5 4826.5 2718.5 4822 2706.5C4817.5 2694.5 4825.5 2676.5 4825.5 2676.5C4825.5 2676.5 4821 2661.5 4815 2652C4809 2642.5 4794.5 2636.5 4792 2627C4789.5 2617.5 4789 2613.5 4792 2599C4795 2584.5 4815 2582 4815 2582C4815 2582 4792 2577.5 4786.5 2573.5C4781 2569.5 4766.5 2555 4766.5 2539C4766.5 2523 4763.5 2525.5 4766.5 2512C4769.5 2498.5 4782 2492.5 4786.5 2484.5C4791 2476.5 4808.5 2427 4815 2417.5C4821.5 2408 4853 2403.5 4866 2392.5C4879 2381.5 4909 2337 4909 2337C4909 2337 4900 2329 4900 2324C4900 2319 4902.5 2309 4909 2302.5Z" fill="#ECCDC4" stroke="#ECCDC4"/>
<path d="M5396.5 2493.5C5396 2485 5408.5 2468 5408.5 2468C5408.5 2468 5395 2468.5 5387 2471C5379 2473.5 5366 2477 5359 2483C5352 2489 5326.5 2508.5 5326.5 2508.5C5326.5 2508.5 5316 2514 5310 2521.5C5304 2529 5301 2534.5 5301.5 2548C5302 2561.5 5308 2569 5308 2569C5308 2569 5314.5 2584 5320.5 2590.5C5326.5 2597 5343.5 2605.5 5344.5 2609.5C5345.5 2613.5 5339.5 2617.5 5338.5 2624C5337.5 2630.5 5337 2632.5 5339.5 2641C5342 2649.5 5348 2656 5348 2656C5348 2656 5356.5 2667.5 5361.5 2669.5C5366.5 2671.5 5378 2669 5380 2671.5C5382 2674 5381 2706 5384 2711C5387 2716 5395.5 2723 5395.5 2723C5395.5 2723 5429 2744.5 5437 2748C5445 2751.5 5466 2754.5 5466 2754.5C5466 2754.5 5494.5 2750.5 5494.5 2754.5V2765C5494.5 2765 5498.5 2780 5504.5 2788.5C5510.5 2797 5519 2806.5 5526 2812C5533 2817.5 5552 2826 5552 2826C5552 2826 5566 2831.5 5570.5 2833C5575 2834.5 5582.5 2859.5 5582.5 2869V2926C5582.5 2942.5 5586 2957.5 5588 2970.5C5590 2983.5 5599 3022.5 5599 3022.5L5622 3085.5C5622 3085.5 5626 3102 5634 3107.5C5642 3113 5652 3105.5 5652 3105.5L5641.5 3092.5C5641.5 3092.5 5625 3052 5622 3041.5C5619 3031 5614.5 3014 5614.5 2999.5V2926C5614.5 2901 5622 2852 5622 2852C5622 2852 5635.5 2806 5629.5 2807.5C5623.5 2809 5612.5 2815 5599 2817.5C5585.5 2820 5563.5 2820.5 5552 2817.5C5540.5 2814.5 5528.5 2802.5 5522.5 2797C5516.5 2791.5 5511 2779 5508.5 2770C5506 2761 5499 2750 5494.5 2748C5490 2746 5480 2743 5480 2743C5480 2743 5462.5 2738 5453.5 2734.5C5444.5 2731 5429 2723 5429 2723C5429 2723 5416.5 2713.5 5414.5 2702.5C5412.5 2691.5 5417.5 2689 5422.5 2683.5C5427.5 2678 5458.5 2667.5 5458.5 2667.5L5435 2656C5435 2656 5420 2649 5414.5 2642.5C5409 2636 5408.5 2626 5408.5 2616.5C5408.5 2607 5411.5 2603.5 5414.5 2593.5C5417.5 2583.5 5429 2574.5 5429 2574.5C5429 2574.5 5424 2575.5 5429 2569C5434 2562.5 5468.5 2559.5 5464.5 2555.5C5460.5 2551.5 5451 2550 5451 2550L5422.5 2534.5C5422.5 2534.5 5406.5 2528.5 5402 2519.5C5397.5 2510.5 5397 2502 5396.5 2493.5Z" fill="#ECCDC4" stroke="#ECCDC4"/>
<path d="M4768.5 2538.5C4768.5 2538.5 4764 2527 4768.5 2511.5C4773 2496 4786 2485.5 4786 2485.5M4916 2341.5C4916 2341.5 4906 2338.5 4903 2325C4900 2311.5 4910 2302.5 4910 2302.5L4916 2341.5ZM5028 2496C5028 2496 5019.5 2517 5028 2524.5C5036.5 2532 5049.5 2524.5 5049.5 2524.5L5028 2496ZM5036.5 2597.5C5036.5 2597.5 5028 2596.5 5028 2613C5028 2629.5 5036.5 2629.5 5036.5 2629.5V2597.5ZM4916 2466.5H4859H4916ZM5082.5 2590.5C5082.5 2590.5 5065 2576 5049.5 2571.47C5034 2566.93 4977.5 2571.47 4977.5 2571.47H4893.5L5082.5 2590.5ZM5049.5 2656.5C5049.5 2656.5 5010.5 2663.5 4996 2663.5C4981.5 2663.5 4935 2663.5 4935 2663.5H4893.5L5049.5 2656.5ZM4844 2721.5C4844 2721.5 4832.5 2721.5 4825 2709.5C4817.5 2697.5 4825 2676.5 4825 2676.5L4844 2721.5ZM4794.5 2620C4794.5 2620 4788 2613 4794.5 2597.5C4801 2582 4818 2582 4818 2582L4794.5 2620Z" stroke="#CEB5A3" stroke-width="3"/>
<path d="M5498 2750L5521 2754M5506 2345.5C5506 2345.5 5521 2338 5521 2329C5521 2320 5521 2305.5 5521 2305.5L5506 2345.5ZM5397 2493.5C5397 2493.5 5397 2512.5 5402.5 2519C5408 2525.5 5421.5 2533.5 5421.5 2533.5L5397 2493.5ZM5614 2493.5C5614 2493.5 5629.5 2489.5 5641.5 2493.5C5653.5 2497.5 5650 2501.5 5650 2501.5L5614 2493.5ZM5633.5 2553.5C5633.5 2553.5 5638.5 2551 5650 2559C5661.5 2567 5661.5 2575 5661.5 2575L5633.5 2553.5ZM5623 2710C5623 2710 5614 2726 5595 2723.5C5576 2721 5569.5 2702 5569.5 2702L5623 2710ZM5661.5 2761C5661.5 2761 5661.5 2779.5 5650 2791C5638.5 2802.5 5614 2814 5614 2814L5661.5 2761ZM5562 2457C5562 2457 5543.5 2463.5 5535 2463.5C5526.5 2463.5 5513 2463.5 5513 2463.5L5562 2457ZM5595 2559L5535 2567C5535 2567 5503.5 2570.5 5490.5 2567C5477.5 2563.5 5467 2567 5454 2567C5441 2567 5432 2575 5421.5 2575C5411 2575 5397 2570 5383.5 2575C5370 2580 5351 2605 5351 2605L5595 2559ZM5383.5 2665.5C5383.5 2665.5 5402.5 2671.5 5413 2671.5C5423.5 2671.5 5432.5 2665.5 5440.5 2665.5C5448.5 2665.5 5466 2671.5 5482 2671.5C5498 2671.5 5549.5 2665.5 5549.5 2665.5H5383.5Z" stroke="#CEB5A3" stroke-width="3"/>
<path d="M4899.5 1483.5L4934 1588.5L5533 1553.5L5563.5 1462.5C5563.5 1462.5 5559.5 1426 5561.5 1406C5563.5 1386 5568 1374 5576.5 1360C5585 1346 5575.5 1335 5578 1322.5C5580.5 1310 5588 1319.5 5592.5 1299.5C5597 1279.5 5583 1282 5583 1271.5C5583 1261 5586.5 1239 5583 1216.5C5579.5 1194 5563.5 1191 5553.5 1179C5543.5 1167 5533 1148.5 5533 1148.5C5533 1148.5 5516 1116 5497 1117.5C5478 1119 5473 1117.5 5473 1117.5C5473 1117.5 5464 1117.5 5464 1112.5C5464 1107.5 5473 1099.5 5473 1095.5C5473 1091.5 5453.5 1093 5452.5 1080C5451.5 1067 5464 1056 5464 1056C5464 1056 5444.5 1065.5 5434.5 1068.5C5424.5 1071.5 5407.5 1086.5 5407.5 1086.5C5407.5 1086.5 5396.5 1059.5 5377.5 1056C5358.5 1052.5 5339 1060 5325 1056C5311 1052 5307 1040.5 5295.5 1031.5C5284 1022.5 5263.5 1013.5 5226.5 1015C5189.5 1016.5 5184.5 1031 5170 1031.5C5155.5 1032 5115.5 1031.5 5093.5 1042C5071.5 1052.5 5091 1057.5 5078 1064C5065 1070.5 5043 1070 5026.5 1076.5C5010 1083 4999.5 1103 4988 1111C4976.5 1119 4955 1131 4946 1141C4937 1151 4938 1156.5 4939.5 1174C4941 1191.5 4912.5 1222 4903.5 1231.5C4894.5 1241 4881 1253.5 4872.5 1266.5C4864 1279.5 4869.5 1302 4872.5 1312.5C4875.5 1323 4883 1329 4883 1336.5C4883 1344 4881 1354.5 4883 1366C4885 1377.5 4892.5 1387 4892.5 1393C4892.5 1399 4891.5 1408.5 4892.5 1420.5C4893.5 1432.5 4901 1440 4901 1446.5C4901 1453 4896.5 1461 4896.5 1465.5C4896.5 1470 4899.5 1483.5 4899.5 1483.5Z" fill="#9B5E3C" stroke="#9B5E3C"/>
<path d="M4949 1481.5V1424C4949 1424 4955 1430.5 4960.5 1431.5C4966 1432.5 4972 1429 4976.5 1424C4981 1419 4989 1395 4989 1395C4989 1395 4998.5 1357 5002.5 1348.5C5006.5 1340 5015.5 1318 5022.5 1308C5029.5 1298 5058.5 1286.5 5064.5 1286.5C5070.5 1286.5 5085 1283 5085 1286.5C5085 1290 5079.5 1311 5078 1323C5076.5 1335 5085 1364.5 5085 1364.5C5085 1364.5 5083 1337.5 5085 1327C5087 1316.5 5089 1295.5 5095 1286.5C5101 1277.5 5128 1258 5132 1260C5136 1262 5135 1272.5 5139.5 1271.5C5144 1270.5 5173.5 1260 5188 1253C5202.5 1246 5234.5 1227 5249.5 1223C5264.5 1219 5310 1219.5 5310 1219.5C5310 1219.5 5335.5 1222 5335.5 1229.5C5335.5 1237 5328 1250.5 5324 1257.5C5320 1264.5 5294.5 1292 5296.5 1295C5298.5 1298 5316.5 1287 5324 1280.5C5331.5 1274 5339.5 1253 5343 1253C5346.5 1253 5329 1282.5 5334 1284.5C5339 1286.5 5392.5 1206.5 5399 1206.5C5405.5 1206.5 5408 1219.5 5403.5 1229.5C5399 1239.5 5357 1287 5360 1292.5C5363 1298 5377.5 1279 5382.5 1276.5C5387.5 1274 5384 1286.5 5391.5 1286.5C5399 1286.5 5402 1271 5407 1264C5412 1257 5413.5 1239.5 5423.5 1239.5C5433.5 1239.5 5459 1262.5 5467.5 1276.5C5476 1290.5 5478.5 1299 5478 1308C5477.5 1317 5471.5 1317.5 5469.5 1324.5C5467.5 1331.5 5466 1347.5 5469.5 1352C5473 1356.5 5473 1372.5 5473 1372.5C5473 1372.5 5467.5 1377 5467.5 1383C5467.5 1389 5473 1401 5473 1401C5473 1401 5477.5 1409.5 5482.5 1419.5C5487.5 1429.5 5496.5 1465.5 5501.5 1479.5C5506.5 1493.5 5525.5 1538.5 5526 1553C5526.5 1567.5 5523.5 1630.5 5523.5 1630.5C5523.5 1630.5 5527 1670 5527.5 1692C5528 1714 5527 1731.5 5523.5 1746.5C5520 1761.5 5497 1822.5 5497 1822.5C5497 1822.5 5487 1863.5 5479 1874C5471 1884.5 5459.5 1895.5 5456.5 1902C5453.5 1908.5 5451 1925.5 5448.5 1931C5446 1936.5 5434.5 1957.5 5427 1967.5C5419.5 1977.5 5386 2009 5386 2009C5386 2009 5356 2041 5348.5 2048.5C5341 2056 5332.5 2071 5321.5 2080C5310.5 2089 5274.5 2097.5 5255 2100C5235.5 2102.5 5191.5 2094.5 5177.5 2090.5C5163.5 2086.5 5128 2069 5128 2069C5128 2069 5101 2060 5090 2048.5C5079 2037 5075.5 2012.5 5071 1999.5C5066.5 1986.5 5045.5 1948.5 5045.5 1948.5L5008 1906.5C5008 1906.5 4980.5 1885 4971 1874C4961.5 1863 4959 1855 4955 1840.5C4951 1826 4940 1751.5 4939 1732C4938 1712.5 4934.5 1620 4934.5 1620C4934.5 1620 4932 1595 4934.5 1588.5C4937 1582 4943 1551.5 4945 1534C4947 1516.5 4949 1481.5 4949 1481.5Z" fill="#FFE1D8" stroke="#FFE1D8"/>
<path d="M4942.5 1644.5C4942.5 1634 4934.5 1614.5 4934.5 1614.5C4934.5 1614.5 4934 1663 4934.5 1672.5C4935 1682 4937 1709.5 4937 1709.5C4937 1709.5 4938.5 1731 4938.5 1739C4938.5 1747 4942.5 1777.5 4942.5 1777.5C4942.5 1777.5 4947 1811.5 4949 1823C4951 1834.5 4954 1848 4959.5 1859.5C4965 1871 4975.5 1883 4981 1889C4986.5 1895 5002.5 1907 5002.5 1907L5019.5 1924.5C5019.5 1924.5 5032 1937 5037.5 1944C5043 1951 5048.5 1962.5 5048.5 1962.5C5048.5 1962.5 5059 1985 5063 1993C5067 2001 5072 2021.5 5072 2021.5C5072 2021.5 5078 2037.5 5081.5 2042C5085 2046.5 5090.5 2053.5 5097 2058.5C5103.5 2063.5 5120.5 2068 5126 2071.5C5131.5 2075 5149 2085.5 5161 2089C5173 2092.5 5185.5 2094.5 5196.5 2097C5207.5 2099.5 5234.5 2102.5 5245 2102C5255.5 2101.5 5277.5 2097 5277.5 2097C5277.5 2097 5309 2088.5 5313.5 2086C5318 2083.5 5321.5 2081.5 5327 2077C5332.5 2072.5 5343 2058 5346 2053C5349 2048 5361 2037.5 5361 2037.5C5361 2037.5 5367.5 2031.5 5379.5 2019C5391.5 2006.5 5403.5 1993 5403.5 1993C5403.5 1993 5420.5 1975 5425.5 1968C5430.5 1961 5441.5 1947.5 5446.5 1937C5451.5 1926.5 5453.5 1909 5457 1903C5460.5 1897 5464 1891.5 5468 1886C5472 1880.5 5477 1879.5 5485 1862.5C5493 1845.5 5500 1813.5 5504.5 1801.5C5509 1789.5 5516 1774.5 5519.5 1764.5C5523 1754.5 5527.5 1731.5 5527.5 1721.5C5527.5 1711.5 5529 1692.5 5527.5 1682C5526 1671.5 5524 1642 5523.5 1630.5C5523 1619 5525.5 1591 5525.5 1591C5525.5 1591 5528 1556 5525.5 1546.5C5523 1537 5516 1518 5516 1518C5516 1518 5512.5 1521.5 5511.5 1528C5510.5 1534.5 5514 1588 5514 1588C5514 1588 5514.5 1608.5 5514 1632.5C5513.5 1656.5 5508.5 1682 5504.5 1692.5C5500.5 1703 5493.5 1715.5 5488 1725.5C5482.5 1735.5 5464.5 1767 5464.5 1767L5433 1811.5L5386.5 1870C5386.5 1870 5379.5 1877 5376 1877.5C5372.5 1878 5368.5 1874.5 5366.5 1870C5364.5 1865.5 5366.5 1846 5366.5 1838.5C5366.5 1831 5368 1802.5 5366.5 1793.5C5365 1784.5 5361 1761 5351.5 1752C5342 1743 5328 1738 5318 1734C5308 1730 5293 1724.5 5282 1724.5C5271 1724.5 5255 1734 5241.5 1734H5210C5203.5 1734 5190.5 1726 5181.5 1724.5C5172.5 1723 5157.5 1723 5146.5 1724.5C5135.5 1726 5112.5 1736.5 5100 1742.5C5087.5 1748.5 5083.5 1754 5078.5 1762C5073.5 1770 5071 1800 5068.5 1811.5C5066 1823 5068.5 1852 5068.5 1852C5068.5 1852 5066.5 1865 5063 1865.5C5059.5 1866 5057 1841.5 5054.5 1836.5C5052 1831.5 5040 1817.5 5037.5 1811.5C5035 1805.5 5033 1791.5 5031.5 1785.5C5030 1779.5 5022.5 1769 5019.5 1768.5C5016.5 1768 5011 1774 5011 1774C5011 1774 5001 1775.5 4996.5 1774C4992 1772.5 4970.5 1765 4966 1762C4961.5 1759 4955.5 1749 4954.5 1746C4953.5 1743 4958.5 1739 4958.5 1739C4958.5 1739 4960 1733.5 4958.5 1731C4957 1728.5 4953 1714 4951.5 1709.5C4950 1705 4949 1685 4947.5 1678C4946 1671 4942.5 1655 4942.5 1644.5Z" fill="#9B5E3C" stroke="#9B5E3C"/>
<path d="M5208 1769C5204 1774 5201 1782.5 5201 1782.5C5201 1782.5 5210 1784.5 5220 1784.5C5230 1784.5 5240.5 1780.5 5240.5 1780.5C5240.5 1780.5 5237 1773.5 5233.5 1767.5C5230 1761.5 5222.5 1755.5 5222.5 1755.5C5222.5 1755.5 5212 1764 5208 1769Z" fill="#FFE1D8" stroke="#FFE1D8"/>
<path d="M5105.5 1870C5107 1865 5110.5 1845 5110.5 1845L5143 1893.5L5138.5 1897.5C5138.5 1897.5 5132 1901.5 5128 1903C5124 1904.5 5116 1903 5112 1903C5108 1903 5097 1901 5096 1899C5095 1897 5100.5 1885.5 5100.5 1885.5C5100.5 1885.5 5104 1875 5105.5 1870Z" fill="#FFE1D8" stroke="#FFE1D8"/>
<path d="M5289 1908C5285 1908.5 5274 1904 5274 1904L5339 1834C5339 1834 5342 1839.5 5343 1844C5344 1848.5 5343 1864 5343 1864V1879.5C5343 1882 5345 1885.5 5345.5 1889.5C5346 1893.5 5346.5 1909 5345.5 1911C5344.5 1913 5343 1913.5 5340.5 1913.5C5338 1913.5 5328.5 1909 5328.5 1909C5328.5 1909 5321.5 1905 5316 1904C5310.5 1903 5301.5 1903 5298 1904C5294.5 1905 5293 1907.5 5289 1908Z" fill="#FFE1D8" stroke="#FFE1D8"/>
<path d="M5118 1795.5C5126 1789.5 5134 1785.5 5141 1783.5C5148 1781.5 5162.5 1780.5 5176 1780.5C5189.5 1780.5 5206.5 1786.5 5217 1786C5227.5 1785.5 5237.5 1781.5 5249 1780.5C5260.5 1779.5 5274.5 1782.5 5279 1783.5C5283.5 1784.5 5310 1795.5 5310 1795.5C5310 1795.5 5330.5 1803 5332.5 1807.5C5336.5 1811.5 5338 1819 5338.5 1822.5C5338.5 1827.5 5340.5 1834 5336.5 1843.5C5332.5 1853 5324 1862.5 5320.5 1866.5V1866.5C5317 1870.5 5303 1886.5 5297.5 1890.5C5292 1894.5 5281.5 1900.5 5275 1903C5268.5 1905.5 5251 1909.5 5243.5 1909.5H5214.5C5206 1909.5 5185 1906.5 5178 1905C5171 1903.5 5154 1898 5154 1898C5154 1898 5141 1893.5 5135.5 1888C5130 1882.5 5124.5 1873 5120.5 1866.5C5116.5 1860 5114 1851.5 5111.5 1846.5C5109 1841.5 5106 1837 5102.5 1829.5C5099 1822 5099 1821.5 5099 1818.5C5100 1816 5101 1814.5 5101 1814.5C5101 1814.5 5110 1801.5 5118 1795.5Z" fill="#FA889D"/>
<path d="M5332.5 1807.5C5332.5 1807.5 5317.5 1804 5313 1803C5308.5 1802 5296.5 1799 5286 1799C5275.5 1799 5256.5 1799 5256.5 1799C5256.5 1799 5234 1799 5230 1799C5226 1799 5222 1800.5 5217 1800.5C5212 1800.5 5209.5 1799 5205 1799C5200.5 1799 5186.5 1797 5178 1797C5169.5 1797 5151.5 1798 5151.5 1798C5151.5 1798 5133.5 1799 5124.5 1802C5115.5 1805 5115 1806 5111.5 1808C5108 1810 5101 1814.5 5101 1814.5M5099 1818.5C5099 1821.5 5099 1822 5102.5 1829.5C5106 1837 5109 1841.5 5111.5 1846.5C5114 1851.5 5116.5 1860 5120.5 1866.5C5124.5 1873 5130 1882.5 5135.5 1888C5141 1893.5 5154 1898 5154 1898C5154 1898 5171 1903.5 5178 1905C5185 1906.5 5206 1909.5 5214.5 1909.5C5223 1909.5 5236 1909.5 5243.5 1909.5C5251 1909.5 5268.5 1905.5 5275 1903C5281.5 1900.5 5292 1894.5 5297.5 1890.5C5303 1886.5 5317 1870.5 5320.5 1866.5C5324 1862.5 5332.5 1853 5336.5 1843.5C5340.5 1834 5338.5 1827.5 5338.5 1822.5L5099 1818.5ZM5099 1818.5L5118 1837C5118 1837 5133.5 1849.5 5139.5 1853.5C5145.5 1857.5 5157.5 1864 5166 1866.5C5174.5 1869 5192 1871 5197.5 1872C5203 1873 5226.5 1874.5 5237 1874C5247.5 1873.5 5264 1868.5 5271 1867.5C5278 1866.5 5295 1862 5300.5 1859.5C5306 1857 5317 1849 5322 1844.5C5327 1840 5338.5 1822.5 5338.5 1822.5L5099 1818.5ZM5099 1818.5C5100 1816 5101 1814.5 5101 1814.5L5099 1818.5ZM5332.5 1807.5C5330.5 1803 5310 1795.5 5310 1795.5C5310 1795.5 5283.5 1784.5 5279 1783.5C5274.5 1782.5 5260.5 1779.5 5249 1780.5C5237.5 1781.5 5227.5 1785.5 5217 1786C5206.5 1786.5 5189.5 1780.5 5176 1780.5C5162.5 1780.5 5148 1781.5 5141 1783.5C5134 1785.5 5126 1789.5 5118 1795.5C5110 1801.5 5101 1814.5 5101 1814.5L5332.5 1807.5ZM5332.5 1807.5C5336.5 1811.5 5338 1819 5338.5 1822.5L5332.5 1807.5Z" stroke="#FA889D"/>
<path d="M5301 1825L5318 1804.5C5318 1804.5 5320 1804.5 5322 1805C5324 1805.5 5327 1806.5 5329 1808C5331 1809.5 5332.5 1811.5 5334 1814C5335.5 1816.5 5337.5 1822 5338 1824C5338.5 1826 5337.5 1826.5 5336 1829C5334.5 1831.5 5328.5 1837.5 5326.5 1839.5C5324.5 1841.5 5320.5 1845 5318 1847C5315.5 1849 5305.5 1856 5305.5 1856L5301 1825Z" fill="#3F1B1B" stroke="#3F1B1B"/>
<path d="M5109.5 1810C5106.5 1812 5101 1816.5 5101 1817.5C5101 1818.5 5101.5 1821 5103 1823C5104.5 1825 5108 1828 5108 1828L5115.5 1834C5115.5 1834 5123.5 1841.5 5126 1843.5C5128.5 1845.5 5134 1850 5136 1851C5138 1852 5143 1855.5 5147.5 1858C5152 1860.5 5156.5 1861 5156.5 1861L5141.5 1824.5L5125 1802C5125 1802 5123 1802 5121.5 1802.5C5120 1803 5112.5 1808 5109.5 1810Z" fill="#3F1B1B" stroke="#3F1B1B"/>
<path d="M5146.5 1837.5C5145 1832 5141 1820.5 5141 1820.5H5289L5301.5 1826C5301.5 1826 5306.5 1834.5 5306.5 1841.5C5306.5 1848.5 5305.5 1856 5305.5 1856C5305.5 1856 5297 1861 5290.5 1863C5284 1865 5263 1868.5 5263 1868.5C5263 1868.5 5246.5 1871.5 5237 1873C5227.5 1874.5 5214 1874 5206 1873C5198 1872 5189.5 1870 5181.5 1868.5C5173.5 1867 5160.5 1864 5157 1861C5153.5 1858 5151.5 1851.5 5151.5 1851.5C5151.5 1851.5 5148 1843 5146.5 1837.5Z" fill="#BD314A" stroke="#BD314A"/>
<path d="M5125 1817.5C5124.5 1816 5123.5 1803 5125 1802C5126.5 1801 5138 1800 5142.5 1799.5C5147 1799 5153.5 1798.5 5159.5 1798.5C5165.5 1798.5 5183.5 1797.5 5190.5 1798.5C5197.5 1799.5 5213 1801 5220 1801C5227 1801 5237.5 1798.5 5243.5 1798.5C5249.5 1798.5 5261 1797.5 5268 1797.5C5275 1797.5 5292.5 1799.5 5292.5 1799.5L5306.5 1802.5C5306.5 1802.5 5317.5 1804 5318.5 1805C5319.5 1806 5324 1817.5 5324 1817.5L5320.5 1820.5C5320.5 1820.5 5320 1823 5318.5 1823.5C5317 1824 5307.5 1823.5 5306.5 1823.5C5305.5 1823.5 5304 1820.5 5304 1820.5C5304 1820.5 5297 1830.5 5296 1831C5295 1831.5 5283 1831.5 5282 1831C5281 1830.5 5278.5 1823.5 5278.5 1823.5C5278.5 1823.5 5273.5 1832 5273 1832.5C5272.5 1833 5266.5 1835.5 5265.5 1836C5264.5 1836.5 5253.5 1836.5 5253 1836L5248 1831C5248 1831 5245.5 1837 5244.5 1837.5C5243.5 1838 5229 1839 5229 1839H5228C5228 1839 5221 1839.5 5220 1839C5219 1838.5 5214 1831 5214 1831C5214 1831 5210.5 1837 5209.5 1837.5C5208.5 1838 5189.5 1837.5 5189.5 1837.5C5189.5 1837.5 5185 1836.5 5184.5 1836C5184 1835.5 5173.5 1823.5 5173.5 1823.5C5173.5 1823.5 5173.5 1824.5 5172.5 1825C5171.5 1825.5 5162 1825.5 5161.5 1825C5161 1824.5 5158.5 1821 5158.5 1821C5158.5 1821 5156.5 1824.5 5156 1825C5155.5 1825.5 5148.5 1825.5 5147.5 1825C5146.5 1824.5 5146.5 1822 5146.5 1822H5142.5C5142.5 1822 5142 1824.5 5141 1825C5140 1825.5 5131.5 1824.5 5130 1823.5C5128.5 1822.5 5125.5 1819 5125 1817.5Z" fill="#F3F3F3" stroke="#F3F3F3"/>
<path d="M5064 1515C5054 1520 5047 1523 5042.5 1529.5C5038 1536 5054.5 1543 5064 1544C5073.5 1545 5088 1544 5095 1544C5102 1544 5117 1540 5123 1540C5129 1540 5139.5 1544 5144 1544C5148.5 1544 5147.5 1544.5 5152.5 1541.5C5157.5 1538.5 5126 1517 5126 1517C5126 1517 5119.5 1511 5110 1508.5C5100.5 1506 5088.5 1508.5 5088.5 1508.5C5088.5 1508.5 5074 1510 5064 1515Z" fill="#F3F3F3"/>
<path d="M5298.5 1522C5295.5 1524.5 5279.5 1531 5280.5 1533.5C5281.5 1536 5304 1535 5310 1536C5316 1537 5321 1539 5336.5 1538.5C5352 1538 5358 1537 5370 1533.5C5382 1530 5391.5 1527.5 5390.5 1523C5389.5 1518.5 5384.5 1514 5378.5 1510C5372.5 1506 5360.5 1503 5360.5 1503C5360.5 1503 5345.5 1498 5331 1502C5316.5 1506 5310 1510 5306 1514C5302 1518 5301.5 1519.5 5298.5 1522Z" fill="#F3F3F3"/>
<path d="M5064 1515C5054 1520 5047 1523 5042.5 1529.5C5038 1536 5054.5 1543 5064 1544C5073.5 1545 5088 1544 5095 1544C5102 1544 5117 1540 5123 1540C5129 1540 5139.5 1544 5144 1544C5148.5 1544 5147.5 1544.5 5152.5 1541.5C5157.5 1538.5 5126 1517 5126 1517C5126 1517 5119.5 1511 5110 1508.5C5100.5 1506 5088.5 1508.5 5088.5 1508.5C5088.5 1508.5 5074 1510 5064 1515Z" stroke="#B7B7B7"/>
<path d="M5298.5 1522C5295.5 1524.5 5279.5 1531 5280.5 1533.5C5281.5 1536 5304 1535 5310 1536C5316 1537 5321 1539 5336.5 1538.5C5352 1538 5358 1537 5370 1533.5C5382 1530 5391.5 1527.5 5390.5 1523C5389.5 1518.5 5384.5 1514 5378.5 1510C5372.5 1506 5360.5 1503 5360.5 1503C5360.5 1503 5345.5 1498 5331 1502C5316.5 1506 5310 1510 5306 1514C5302 1518 5301.5 1519.5 5298.5 1522Z" stroke="#B7B7B7"/>
<path d="M5064.5 1527C5064 1517 5067.5 1513.5 5067.5 1513.5C5067.5 1513.5 5074 1511 5082 1509C5090 1507 5093.5 1507 5099.5 1507C5105.5 1507 5107.5 1508 5107.5 1508C5107.5 1508 5114 1512.5 5114 1527C5114 1541.5 5112 1541.5 5112 1541.5C5112 1541.5 5101 1544 5095 1544C5089 1544 5073 1544.5 5073 1544.5C5073 1544.5 5065 1537 5064.5 1527Z" fill="#61B3CD"/>
<path d="M5318 1521.5C5317 1506.5 5325 1503.5 5325 1503.5C5325 1503.5 5333 1501 5340.5 1500.5C5348 1500 5358 1502 5358 1502C5358 1502 5365.5 1506 5366 1520C5366.5 1534 5364.5 1535 5364.5 1535C5364.5 1535 5359 1537 5346 1538C5333 1539 5327 1538.5 5327 1538.5C5327 1538.5 5319 1536.5 5318 1521.5Z" fill="#61B3CD"/>
<path d="M5064.5 1527C5064 1517 5067.5 1513.5 5067.5 1513.5C5067.5 1513.5 5074 1511 5082 1509C5090 1507 5093.5 1507 5099.5 1507C5105.5 1507 5107.5 1508 5107.5 1508C5107.5 1508 5114 1512.5 5114 1527C5114 1541.5 5112 1541.5 5112 1541.5C5112 1541.5 5101 1544 5095 1544C5089 1544 5073 1544.5 5073 1544.5C5073 1544.5 5065 1537 5064.5 1527Z" stroke="#61B3CD"/>
<path d="M5318 1521.5C5317 1506.5 5325 1503.5 5325 1503.5C5325 1503.5 5333 1501 5340.5 1500.5C5348 1500 5358 1502 5358 1502C5358 1502 5365.5 1506 5366 1520C5366.5 1534 5364.5 1535 5364.5 1535C5364.5 1535 5359 1537 5346 1538C5333 1539 5327 1538.5 5327 1538.5C5327 1538.5 5319 1536.5 5318 1521.5Z" stroke="#61B3CD"/>
<path d="M5169.5 1490C5161.5 1482 5145 1477.5 5145 1477.5L5025.5 1475.5L5019.5 1481C5019.5 1481 5022 1483 5027.5 1485.5C5033 1488 5055 1494 5065 1495C5075 1496 5088.5 1493.5 5101 1495C5113.5 1496.5 5131 1499.5 5137 1503C5143 1506.5 5150.5 1510.5 5153 1518.5C5155.5 1526.5 5158 1536.5 5155.5 1543C5153 1549.5 5157 1553.5 5157 1558C5157 1562.5 5160 1566.5 5155.5 1570C5151 1573.5 5149.5 1576.5 5149.5 1576.5C5149.5 1576.5 5141.5 1590.5 5138 1602C5134.5 1613.5 5132 1624.5 5132 1633.5C5132 1642.5 5133 1668.5 5135.5 1670C5138 1671.5 5147 1660 5147 1660L5143.5 1689L5147.5 1698L5151 1702C5151 1702 5174.5 1714.5 5183.5 1716C5192.5 1717.5 5220.5 1715 5222.5 1714C5224.5 1713 5223 1709 5223.5 1705.5C5224 1702 5230.5 1693.5 5229 1692.5C5227.5 1691.5 5220.5 1702 5209 1702C5197.5 1702 5195.5 1698 5192.5 1695.5C5189.5 1693 5185.5 1686.5 5185.5 1686.5C5185.5 1686.5 5180.5 1674 5179 1671.5C5177.5 1669 5172 1675.5 5170.5 1674C5169 1672.5 5171 1665.5 5176 1657C5181 1648.5 5188.5 1644.5 5191 1627.5C5193.5 1610.5 5188 1600.5 5185.5 1588.5C5183 1576.5 5182 1570.5 5183.5 1556.5C5185 1542.5 5191 1538.5 5192.5 1524C5194 1509.5 5177.5 1498 5169.5 1490Z" fill="#ECCDC4"/>
<path d="M5312.5 1682.5C5307 1673 5295 1651.5 5295 1651.5L5311.5 1665.5L5337 1695.5L5353 1719.5L5365 1754L5363.5 1774C5363.5 1774 5362 1768.5 5359.5 1762.5C5357 1756.5 5353.5 1753 5353.5 1753C5353.5 1753 5353 1745.5 5350 1737.5C5347 1729.5 5333.5 1711 5333.5 1711C5333.5 1711 5318 1692 5312.5 1682.5Z" fill="#ECCDC4"/>
<path d="M5299 1478C5299 1478 5270.5 1509 5269 1516C5267.5 1523 5298.5 1495.5 5307.5 1492C5316.5 1488.5 5332 1488.5 5332 1488.5C5332 1488.5 5350.5 1489.5 5360.5 1492C5370.5 1494.5 5383.5 1495.5 5390 1501.5C5396.5 1507.5 5404.5 1521 5406 1520C5407.5 1519 5394.5 1500.5 5396.5 1492C5398.5 1483.5 5420 1482 5427 1483.5C5434 1485 5454 1492 5454 1492L5439.5 1479L5413.5 1470.5H5330L5299 1478Z" fill="#ECCDC4"/>
<path d="M5169.5 1490C5161.5 1482 5145 1477.5 5145 1477.5L5025.5 1475.5L5019.5 1481C5019.5 1481 5022 1483 5027.5 1485.5C5033 1488 5055 1494 5065 1495C5075 1496 5088.5 1493.5 5101 1495C5113.5 1496.5 5131 1499.5 5137 1503C5143 1506.5 5150.5 1510.5 5153 1518.5C5155.5 1526.5 5158 1536.5 5155.5 1543C5153 1549.5 5157 1553.5 5157 1558C5157 1562.5 5160 1566.5 5155.5 1570C5151 1573.5 5149.5 1576.5 5149.5 1576.5C5149.5 1576.5 5141.5 1590.5 5138 1602C5134.5 1613.5 5132 1624.5 5132 1633.5C5132 1642.5 5133 1668.5 5135.5 1670C5138 1671.5 5147 1660 5147 1660L5143.5 1689L5147.5 1698L5151 1702C5151 1702 5174.5 1714.5 5183.5 1716C5192.5 1717.5 5220.5 1715 5222.5 1714C5224.5 1713 5223 1709 5223.5 1705.5C5224 1702 5230.5 1693.5 5229 1692.5C5227.5 1691.5 5220.5 1702 5209 1702C5197.5 1702 5195.5 1698 5192.5 1695.5C5189.5 1693 5185.5 1686.5 5185.5 1686.5C5185.5 1686.5 5180.5 1674 5179 1671.5C5177.5 1669 5172 1675.5 5170.5 1674C5169 1672.5 5171 1665.5 5176 1657C5181 1648.5 5188.5 1644.5 5191 1627.5C5193.5 1610.5 5188 1600.5 5185.5 1588.5C5183 1576.5 5182 1570.5 5183.5 1556.5C5185 1542.5 5191 1538.5 5192.5 1524C5194 1509.5 5177.5 1498 5169.5 1490Z" stroke="#ECCDC4"/>
<path d="M5312.5 1682.5C5307 1673 5295 1651.5 5295 1651.5L5311.5 1665.5L5337 1695.5L5353 1719.5L5365 1754L5363.5 1774C5363.5 1774 5362 1768.5 5359.5 1762.5C5357 1756.5 5353.5 1753 5353.5 1753C5353.5 1753 5353 1745.5 5350 1737.5C5347 1729.5 5333.5 1711 5333.5 1711C5333.5 1711 5318 1692 5312.5 1682.5Z" stroke="#ECCDC4"/>
<path d="M5299 1478C5299 1478 5270.5 1509 5269 1516C5267.5 1523 5298.5 1495.5 5307.5 1492C5316.5 1488.5 5332 1488.5 5332 1488.5C5332 1488.5 5350.5 1489.5 5360.5 1492C5370.5 1494.5 5383.5 1495.5 5390 1501.5C5396.5 1507.5 5404.5 1521 5406 1520C5407.5 1519 5394.5 1500.5 5396.5 1492C5398.5 1483.5 5420 1482 5427 1483.5C5434 1485 5454 1492 5454 1492L5439.5 1479L5413.5 1470.5H5330L5299 1478Z" stroke="#ECCDC4"/>
<path d="M5154.5 1697L5158.5 1692.5H5168.5L5179.5 1698C5179.5 1698 5186.5 1708 5183.5 1708C5180.5 1708 5168.5 1699.5 5165 1699.5C5161.5 1699.5 5158.5 1701.5 5156.5 1701.5C5154.5 1701.5 5154.5 1697 5154.5 1697Z" fill="#BB978C"/>
<path d="M5225.5 1713.5C5225.5 1713.5 5231.89 1718 5234.89 1717.5C5237.89 1717 5247.39 1708 5250.89 1706.5C5254.39 1705 5257 1706.5 5261 1706.5H5270.5L5273.5 1700.5L5269.5 1696H5256L5235 1704.5L5225.5 1713.5Z" fill="#BB978C"/>
<path d="M5154.5 1697L5158.5 1692.5H5168.5L5179.5 1698C5179.5 1698 5186.5 1708 5183.5 1708C5180.5 1708 5168.5 1699.5 5165 1699.5C5161.5 1699.5 5158.5 1701.5 5156.5 1701.5C5154.5 1701.5 5154.5 1697 5154.5 1697Z" stroke="#BB978C"/>
<path d="M5225.5 1713.5C5225.5 1713.5 5231.89 1718 5234.89 1717.5C5237.89 1717 5247.39 1708 5250.89 1706.5C5254.39 1705 5257 1706.5 5261 1706.5H5270.5L5273.5 1700.5L5269.5 1696H5256L5235 1704.5L5225.5 1713.5Z" stroke="#BB978C"/>
<path d="M5009 1467C4995.5 1475.5 4985.5 1487.5 4985.5 1487.5C4985.5 1487.5 4981.5 1492 4982.5 1493C4983.5 1494 5005 1484 5005 1484C5005 1484 5019 1479.5 5028.5 1478C5038 1476.5 5084.5 1476.5 5093.5 1476.5C5102.5 1476.5 5117 1480.5 5117 1480.5C5117 1480.5 5134.5 1484.5 5137 1484C5139.5 1483.5 5145.5 1479 5146 1476.5C5146.5 1474 5139.5 1471.5 5135 1470C5130.5 1468.5 5102.5 1463 5102.5 1463C5102.5 1463 5084.5 1458.5 5070 1456.5C5055.5 1454.5 5036.5 1455.5 5033 1456.5C5029.5 1457.5 5022.5 1458.5 5009 1467Z" fill="#9B5E3C"/>
<path d="M5294.18 1462.62C5287.33 1465.26 5267 1473.07 5267 1477.5C5267 1482 5299 1477.5 5299 1477.5C5299 1477.5 5316 1475 5322.5 1475H5380C5390.5 1475 5403 1472 5407.5 1472C5412 1472 5433 1478 5436 1479.5C5439 1481 5448 1490 5451.5 1491.5C5455 1493 5459 1494 5460.5 1492.5C5462 1491 5460.5 1483.5 5457 1479.5C5453.5 1475.5 5445 1468.5 5440.5 1466C5436 1463.5 5422.5 1459 5416 1458C5409.5 1457 5373 1456.5 5365 1457C5357 1457.5 5335.5 1458 5329 1458C5322.5 1458 5301 1460 5294.5 1462.5L5294.18 1462.62Z" fill="#9B5E3C"/>
<path d="M5009 1467C4995.5 1475.5 4985.5 1487.5 4985.5 1487.5C4985.5 1487.5 4981.5 1492 4982.5 1493C4983.5 1494 5005 1484 5005 1484C5005 1484 5019 1479.5 5028.5 1478C5038 1476.5 5084.5 1476.5 5093.5 1476.5C5102.5 1476.5 5117 1480.5 5117 1480.5C5117 1480.5 5134.5 1484.5 5137 1484C5139.5 1483.5 5145.5 1479 5146 1476.5C5146.5 1474 5139.5 1471.5 5135 1470C5130.5 1468.5 5102.5 1463 5102.5 1463C5102.5 1463 5084.5 1458.5 5070 1456.5C5055.5 1454.5 5036.5 1455.5 5033 1456.5C5029.5 1457.5 5022.5 1458.5 5009 1467Z" stroke="#9B5E3C"/>
<path d="M5294.18 1462.62C5287.33 1465.26 5267 1473.07 5267 1477.5C5267 1482 5299 1477.5 5299 1477.5C5299 1477.5 5316 1475 5322.5 1475H5380C5390.5 1475 5403 1472 5407.5 1472C5412 1472 5433 1478 5436 1479.5C5439 1481 5448 1490 5451.5 1491.5C5455 1493 5459 1494 5460.5 1492.5C5462 1491 5460.5 1483.5 5457 1479.5C5453.5 1475.5 5445 1468.5 5440.5 1466C5436 1463.5 5422.5 1459 5416 1458C5409.5 1457 5373 1456.5 5365 1457C5357 1457.5 5335.5 1458 5329 1458C5322.5 1458 5301 1460 5294.5 1462.5L5294.18 1462.62Z" stroke="#9B5E3C"/>
<path d="M5305.5 1659.5L5325 1681C5325 1681 5330 1685.5 5338.5 1696.5C5347 1707.5 5351.5 1717.5 5351.5 1717.5C5351.5 1717.5 5355.5 1724.5 5360 1737C5364.5 1749.5 5365 1762.5 5365 1762.5M5093 1726C5093 1726 5095 1715.5 5108 1701C5121 1686.5 5133.5 1677 5133.5 1677L5093 1726ZM5184.5 1708.5C5184.5 1708.5 5182.5 1700 5177.5 1697C5172.5 1694 5164 1691.5 5161.5 1691.5C5159 1691.5 5156.5 1693 5155 1694C5153.5 1695 5155.5 1699.5 5155 1701C5154.5 1702.5 5151 1702 5149 1700C5147 1698 5145 1693 5144 1689C5143 1685 5144 1681 5144 1678C5144 1675 5146.5 1663.5 5147 1660.5C5147.5 1657.5 5150.5 1649.5 5152.5 1647.5C5154.5 1645.5 5160 1643.5 5160 1643.5C5160 1643.5 5165.5 1642.5 5167.5 1645C5169.5 1647.5 5172 1653 5172 1653L5175 1660L5184.5 1708.5ZM5237 1717.5C5237 1717.5 5232 1718.5 5229.5 1717.5C5227 1716.5 5224.5 1714 5225.5 1712C5226.5 1710 5234 1705.5 5234 1705.5C5234 1705.5 5240.5 1702 5244.5 1700C5248.5 1698 5255.5 1696.5 5255.5 1696.5C5255.5 1696.5 5265.5 1695 5268.5 1695.5C5271.5 1696 5273.5 1698.5 5274 1700C5274.5 1701.5 5270.5 1704.5 5271 1705.5C5271.5 1706.5 5276.5 1705 5278.5 1704.5C5280.5 1704 5286.5 1699 5288 1696.5C5289.5 1694 5294.5 1686.5 5294.5 1686.5C5294.5 1686.5 5298.5 1678 5299.5 1674C5300.5 1670 5301 1664.5 5299.5 1661C5298 1657.5 5293.5 1651 5293.5 1651L5237 1717.5Z" stroke="#CEB5A3" stroke-width="3"/>
<path d="M5529.5 1539C5529.5 1539 5526.5 1544 5526.5 1547.5C5526.5 1551 5528.5 1561 5526.5 1580.5C5524.5 1600 5524.5 1618.5 5524.5 1618.5C5524.5 1618.5 5523 1647 5524.5 1657.5C5526 1668 5528 1671.5 5528 1689.5V1727C5528 1727 5530.5 1730.4 5537.5 1729C5544.5 1727.6 5552 1722.5 5562.5 1714C5573 1705.5 5581.5 1689.5 5586 1684C5590.5 1678.5 5602.5 1668.5 5608.5 1646C5614.5 1623.5 5609 1612.5 5611.5 1597.5C5614 1582.5 5613.5 1573 5614 1552.5C5614.5 1532 5612.5 1519.5 5608.5 1505C5604.5 1490.5 5598 1469 5589 1463.5C5580.11 1458.07 5572.69 1460.93 5566.24 1463.41L5566 1463.5C5559.5 1466 5550 1465.5 5543 1481C5536 1496.5 5532.5 1512 5532.5 1521.5C5532.5 1531 5534.5 1547.5 5532.5 1547.5C5530.5 1547.5 5529.5 1539 5529.5 1539Z" fill="#FFE1D8"/>
<path d="M4908.5 1703.5C4915 1713 4938 1724.5 4938 1724.5C4938 1724.5 4935.5 1697 4934 1674.5C4932.5 1652 4934 1650.5 4934 1650.5V1617.5C4934 1617.5 4932 1601 4932.5 1594C4933 1587 4934 1584 4934 1584C4934 1584 4936.5 1578.5 4934 1570.5C4931.5 1562.5 4928 1555 4928 1547.5C4928 1540 4932.5 1537 4929.5 1531C4926.5 1525 4921.5 1523.5 4919 1518C4916.5 1512.5 4919 1498 4916 1491.5C4913 1485 4905 1484.5 4900 1484.5C4895 1484.5 4887 1487 4882 1491.5C4877 1496 4874.5 1499 4874.5 1507.5C4874.5 1516 4880.5 1520 4880.5 1531C4880.5 1542 4875 1547 4877.5 1561C4880 1575 4888 1580.5 4889 1592C4890 1603.5 4887 1625 4887 1625C4887 1625 4884.5 1649 4887 1660.5C4889.5 1672 4895.5 1681.5 4900 1687.5C4904.5 1693.5 4902 1694 4908.5 1703.5Z" fill="#FFE1D8"/>
<path d="M5529.5 1539C5529.5 1539 5526.5 1544 5526.5 1547.5C5526.5 1551 5528.5 1561 5526.5 1580.5C5524.5 1600 5524.5 1618.5 5524.5 1618.5C5524.5 1618.5 5523 1647 5524.5 1657.5C5526 1668 5528 1671.5 5528 1689.5V1727C5528 1727 5530.5 1730.4 5537.5 1729C5544.5 1727.6 5552 1722.5 5562.5 1714C5573 1705.5 5581.5 1689.5 5586 1684C5590.5 1678.5 5602.5 1668.5 5608.5 1646C5614.5 1623.5 5609 1612.5 5611.5 1597.5C5614 1582.5 5613.5 1573 5614 1552.5C5614.5 1532 5612.5 1519.5 5608.5 1505C5604.5 1490.5 5598 1469 5589 1463.5C5580.11 1458.07 5572.69 1460.93 5566.24 1463.41L5566 1463.5C5559.5 1466 5550 1465.5 5543 1481C5536 1496.5 5532.5 1512 5532.5 1521.5C5532.5 1531 5534.5 1547.5 5532.5 1547.5C5530.5 1547.5 5529.5 1539 5529.5 1539Z" stroke="#FFE1D8"/>
<path d="M4908.5 1703.5C4915 1713 4938 1724.5 4938 1724.5C4938 1724.5 4935.5 1697 4934 1674.5C4932.5 1652 4934 1650.5 4934 1650.5V1617.5C4934 1617.5 4932 1601 4932.5 1594C4933 1587 4934 1584 4934 1584C4934 1584 4936.5 1578.5 4934 1570.5C4931.5 1562.5 4928 1555 4928 1547.5C4928 1540 4932.5 1537 4929.5 1531C4926.5 1525 4921.5 1523.5 4919 1518C4916.5 1512.5 4919 1498 4916 1491.5C4913 1485 4905 1484.5 4900 1484.5C4895 1484.5 4887 1487 4882 1491.5C4877 1496 4874.5 1499 4874.5 1507.5C4874.5 1516 4880.5 1520 4880.5 1531C4880.5 1542 4875 1547 4877.5 1561C4880 1575 4888 1580.5 4889 1592C4890 1603.5 4887 1625 4887 1625C4887 1625 4884.5 1649 4887 1660.5C4889.5 1672 4895.5 1681.5 4900 1687.5C4904.5 1693.5 4902 1694 4908.5 1703.5Z" stroke="#FFE1D8"/>
<path d="M4902.5 1499C4901 1492.5 4893.5 1488.5 4893.5 1486.5C4893.5 1484.5 4897.5 1483.5 4900 1483.5C4902.5 1483.5 4903.5 1484 4906.5 1484.5C4909.5 1485 4912 1486 4914.5 1488C4917 1490 4917.5 1493 4918 1496C4918.5 1499 4918 1509.5 4918 1512C4918 1514.5 4919 1517.5 4920.5 1519.5C4922 1521.5 4927 1526 4927 1526C4927 1526 4930.5 1529.5 4931 1533.5C4931.5 1537.5 4930 1541.5 4930 1541.5C4930 1541.5 4928.5 1543.5 4928.5 1549.5C4928.5 1555.5 4931.5 1560 4931.5 1560C4931.5 1560 4936 1570.5 4936 1576.5C4936 1582.5 4934.5 1583 4933 1591.5C4931.5 1600 4934.5 1607.5 4935 1618.5C4935.5 1629.5 4934 1644.5 4934 1664C4934 1683.5 4938 1723 4938 1723C4938 1723 4937 1724.5 4935 1724C4933 1723.5 4930.5 1721 4925.5 1718C4920.5 1715 4918 1713 4918 1713C4918 1713 4913.5 1711 4912.5 1705C4911.5 1699 4910.5 1690.5 4910.5 1690.5C4910.5 1690.5 4909 1684.5 4910.5 1679C4912 1673.5 4915.5 1669.5 4915.5 1669.5C4915.5 1669.5 4917.5 1664.5 4918 1656.5C4918.5 1648.5 4915.5 1638 4915.5 1638C4915.5 1638 4913.5 1628 4912.5 1618.5C4911.5 1609 4913.5 1598.5 4915.5 1591.5C4917.5 1584.5 4920.5 1581.5 4922 1576.5C4923.5 1571.5 4922 1569 4922 1566.5C4922 1564 4920.5 1562.5 4918 1560C4915.5 1557.5 4913 1558 4906.5 1560C4900 1562 4896.5 1580 4894.5 1579C4892.5 1578 4893.5 1572.5 4893.5 1569V1558C4893.5 1554 4895 1551.5 4895.5 1546.5C4896 1541.5 4895.5 1536 4895.5 1531.5C4895.5 1527 4897.5 1521.5 4895.5 1518C4893.5 1514.5 4887 1515 4887 1513.5C4887 1512 4890.5 1510.5 4893.5 1510.5C4896.5 1510.5 4901.5 1513.5 4902.5 1513.5C4903.5 1513.5 4904 1505.5 4902.5 1499Z" fill="#ECCDC4" stroke="#ECCDC4"/>
<path d="M5582 1505.5C5580 1502.5 5570.5 1508 5570.5 1505.5C5570.5 1503 5573 1493.5 5578.5 1492.5C5584 1491.5 5587 1500 5587 1500L5594 1517L5599 1538L5596.5 1549.5L5594 1579.5L5596.5 1609.5L5594 1633L5578.5 1653C5578.5 1653 5585.5 1638 5587 1633C5588.5 1628 5589 1609.5 5587 1607.5C5585 1605.5 5582 1624 5578.5 1628C5575 1632 5570.5 1633 5570.5 1633L5564 1639L5552.5 1636.5C5552.5 1636.5 5556.5 1628 5556.5 1624V1607.5C5556.5 1607.5 5556.5 1597 5558.5 1594.5C5560.5 1592 5570 1596 5573.5 1592.5C5577 1589 5568.5 1575.5 5569 1572C5569.5 1568.5 5585 1575.5 5587 1572C5589 1568.5 5587 1554 5587 1549.5V1523C5587 1517.5 5584 1508.5 5582 1505.5Z" fill="#ECCDC4" stroke="#ECCDC4"/>
<path d="M4926.5 1576C4926.5 1576 4918.5 1586 4916 1595C4913.5 1604 4912 1613 4912 1617.5C4912 1622 4912 1630 4913.5 1635C4915 1640 4920 1648.5 4920 1648.5C4920 1648.5 4923 1651.5 4926.5 1651C4930 1650.5 4929 1644.5 4929 1644.5L4924.5 1637C4924.5 1637 4921 1633 4922.5 1628C4924 1623 4926.5 1624 4926.5 1624M4880 1518C4880 1518 4884.5 1513 4887 1511.5C4889.5 1510 4896.5 1509.5 4899 1511.5C4901.5 1513.5 4903.5 1518 4903.5 1518C4903.5 1518 4907.5 1526 4907 1533C4906.5 1540 4903.5 1546.5 4903.5 1546.5C4903.5 1546.5 4899 1556.5 4897 1560.5C4895 1564.5 4894.5 1576 4894.5 1576L4880 1518Z" stroke="#CEB5A3" stroke-width="3"/>
<path d="M5541 1583.5C5541 1583.5 5555.5 1590.5 5560 1597C5564.5 1603.5 5564.5 1621.5 5564.5 1621.5M5533 1577.5C5533 1577.5 5541 1568.5 5543 1561C5545 1553.5 5541 1542.5 5543 1535.5C5545 1528.5 5554 1520.5 5560 1515.5C5566 1510.5 5571 1498 5575.5 1494C5580 1490 5584 1494 5584 1494C5584 1494 5595 1509.5 5598 1527.5C5601 1545.5 5597 1544.5 5595.5 1561C5594 1577.5 5595.5 1595 5595.5 1595C5595.5 1595 5598 1622.5 5594 1631.5C5590 1640.5 5571 1664 5571 1664L5533 1577.5ZM5533 1648C5533 1648 5538.5 1640 5543 1638.5C5547.5 1637 5558.5 1638.5 5563 1638.5C5567.5 1638.5 5571 1631.5 5571 1631.5L5533 1648ZM5567.5 1625.5C5567.5 1625.5 5579 1612 5580.5 1606.5C5582 1601 5583.5 1595 5582 1591.5C5580.5 1588 5578 1583.5 5574 1577.5C5570 1571.5 5549 1559.5 5549 1559.5L5567.5 1625.5Z" stroke="#CEB5A3" stroke-width="3"/>
<path d="M5393.5 3960C5379 3954 5370 3946 5352 3953C5334 3960 5322.5 3983 5310 4003.5C5297.5 4024 5288.5 4045 5278.5 4083C5268.5 4121 5228.5 4194 5228.5 4194C5228.5 4194 5324 4238 5364 4247C5404 4256 5446.5 4249 5483.5 4252.5C5520.5 4256 5586.5 4272.5 5625.5 4276.5C5664.5 4280.5 5758.5 4281.5 5805 4285C5851.5 4288.5 5929 4304 5959.5 4306C5990 4308 5999.5 4331.5 6017 4335C6034.5 4338.5 6079.5 4339.5 6097 4327C6114.5 4314.5 6125.5 4295 6128 4272.5C6130.5 4250 6118 4240.5 6121.5 4233.5C6125 4226.5 6138 4233.5 6143 4226C6148 4218.5 6143 4202 6143 4180C6143 4158 6163 4136.5 6163 4136.5C6163 4136.5 6169.5 4125 6163 4098C6156.5 4071 6129.5 4070 6121.5 4049.5C6113.5 4029 6096.5 3965 6089.5 3948.5C6082.5 3932 6075 3914.5 6048 3902C6021 3889.5 6015.5 3914.5 5996.5 3909.5C5977.5 3904.5 5959.5 3885.5 5947 3885C5934.5 3884.5 5922 3902 5922 3902C5922 3902 5895.5 3904 5863.5 3914.5C5831.5 3925 5785.5 3972 5760.5 3983C5735.5 3994 5724 3987 5703 3993C5682 3999 5625.5 4018 5625.5 4018C5625.5 4018 5577 4035.5 5541 4028C5505 4020.5 5514 4003.5 5493.5 3993C5473 3982.5 5442 3985.5 5422.5 3980.5C5403 3975.5 5408 3966 5393.5 3960Z" fill="#FFE1D8"/>
<path d="M4513.5 3908.5C4550 3910.5 4637 3941.5 4664.5 3958.5C4692 3975.5 4767 4040 4794 4063C4821 4086 4845.5 4121.5 4882.5 4144.5C4919.5 4167.5 4963.5 4185.5 4963.5 4185.5C4963.5 4185.5 4659.5 4211.5 4625.5 4235.5C4591.5 4259.5 4577 4257.5 4520 4265.5C4463 4273.5 4435.5 4251.5 4400 4235.5C4364.5 4219.5 4320.5 4203.5 4320.5 4166.5C4320.5 4129.5 4327 4126.5 4327 4126.5C4327 4126.5 4316.5 4117 4320.5 4107C4324.5 4097 4342.5 4089 4342.5 4089C4342.5 4089 4339 4054 4349 4048C4359 4042 4432.5 4024 4443.5 4007C4454.5 3990 4428 3958.5 4443.5 3940.5C4459 3922.5 4477 3906.5 4513.5 3908.5Z" fill="#FFE1D8"/>
<path d="M5393.5 3960C5379 3954 5370 3946 5352 3953C5334 3960 5322.5 3983 5310 4003.5C5297.5 4024 5288.5 4045 5278.5 4083C5268.5 4121 5228.5 4194 5228.5 4194C5228.5 4194 5324 4238 5364 4247C5404 4256 5446.5 4249 5483.5 4252.5C5520.5 4256 5586.5 4272.5 5625.5 4276.5C5664.5 4280.5 5758.5 4281.5 5805 4285C5851.5 4288.5 5929 4304 5959.5 4306C5990 4308 5999.5 4331.5 6017 4335C6034.5 4338.5 6079.5 4339.5 6097 4327C6114.5 4314.5 6125.5 4295 6128 4272.5C6130.5 4250 6118 4240.5 6121.5 4233.5C6125 4226.5 6138 4233.5 6143 4226C6148 4218.5 6143 4202 6143 4180C6143 4158 6163 4136.5 6163 4136.5C6163 4136.5 6169.5 4125 6163 4098C6156.5 4071 6129.5 4070 6121.5 4049.5C6113.5 4029 6096.5 3965 6089.5 3948.5C6082.5 3932 6075 3914.5 6048 3902C6021 3889.5 6015.5 3914.5 5996.5 3909.5C5977.5 3904.5 5959.5 3885.5 5947 3885C5934.5 3884.5 5922 3902 5922 3902C5922 3902 5895.5 3904 5863.5 3914.5C5831.5 3925 5785.5 3972 5760.5 3983C5735.5 3994 5724 3987 5703 3993C5682 3999 5625.5 4018 5625.5 4018C5625.5 4018 5577 4035.5 5541 4028C5505 4020.5 5514 4003.5 5493.5 3993C5473 3982.5 5442 3985.5 5422.5 3980.5C5403 3975.5 5408 3966 5393.5 3960Z" stroke="#FFE1D8"/>
<path d="M4513.5 3908.5C4550 3910.5 4637 3941.5 4664.5 3958.5C4692 3975.5 4767 4040 4794 4063C4821 4086 4845.5 4121.5 4882.5 4144.5C4919.5 4167.5 4963.5 4185.5 4963.5 4185.5C4963.5 4185.5 4659.5 4211.5 4625.5 4235.5C4591.5 4259.5 4577 4257.5 4520 4265.5C4463 4273.5 4435.5 4251.5 4400 4235.5C4364.5 4219.5 4320.5 4203.5 4320.5 4166.5C4320.5 4129.5 4327 4126.5 4327 4126.5C4327 4126.5 4316.5 4117 4320.5 4107C4324.5 4097 4342.5 4089 4342.5 4089C4342.5 4089 4339 4054 4349 4048C4359 4042 4432.5 4024 4443.5 4007C4454.5 3990 4428 3958.5 4443.5 3940.5C4459 3922.5 4477 3906.5 4513.5 3908.5Z" stroke="#FFE1D8"/>
<path d="M4600.5 3958.5C4589 3950 4527.5 3907.5 4527.5 3907.5C4527.5 3907.5 4586.5 3924 4609 3932.5C4631.5 3941 4655.5 3952 4679.5 3967C4703.5 3982 4750 4023.5 4750 4023.5C4750 4023.5 4802.5 4070.5 4820 4087C4837.5 4103.5 4861.5 4129.5 4877 4140.5C4892.5 4151.5 4961.5 4186 4961.5 4186C4961.5 4186 4836.5 4196 4792.5 4203.5C4748.5 4211 4708.5 4214.5 4708.5 4214.5C4708.5 4214.5 4716 4186 4716 4172V4127.5C4716 4114.5 4696.5 4075 4696.5 4075C4696.5 4075 4667.5 4026 4655 4011C4642.5 3996 4612 3967 4600.5 3958.5Z" fill="#ECCDC4"/>
<path d="M5298.5 4119.5C5292 4100.5 5292 4048 5292 4048C5292 4048 5270 4112 5260.5 4132.5C5251 4153 5230 4194.5 5230 4194.5C5230 4194.5 5346.5 4244 5374 4250.5C5401.5 4257 5450.5 4250.5 5467.5 4250.5C5484.5 4250.5 5545 4267.5 5577.5 4270.5C5610 4273.5 5624.5 4276 5667 4279C5709.5 4282 5766 4282.5 5807.5 4285.5C5849 4288.5 5898 4297 5898 4297C5898 4297 5952 4304.5 5973.5 4310C5995 4315.5 6003 4331.5 6016 4335C6029 4338.5 6071 4339 6085.5 4332C6100 4325 6109 4317 6109 4317C6109 4317 6070 4310 6056 4303C6042 4296 6016 4271 6016 4271C6016 4271 5992.5 4246.5 5978.5 4219.5C5964.5 4192.5 5958 4150.5 5958 4150.5C5958 4150.5 5945 4185.5 5933 4202.5C5921 4219.5 5869.5 4228 5829.5 4238.5C5789.5 4249 5634.5 4238.5 5634.5 4238.5C5634.5 4238.5 5500 4237 5467.5 4231C5435 4225 5363 4194.5 5344 4186C5325 4177.5 5305 4138.5 5298.5 4119.5Z" fill="#ECCDC4"/>
<path d="M4600.5 3958.5C4589 3950 4527.5 3907.5 4527.5 3907.5C4527.5 3907.5 4586.5 3924 4609 3932.5C4631.5 3941 4655.5 3952 4679.5 3967C4703.5 3982 4750 4023.5 4750 4023.5C4750 4023.5 4802.5 4070.5 4820 4087C4837.5 4103.5 4861.5 4129.5 4877 4140.5C4892.5 4151.5 4961.5 4186 4961.5 4186C4961.5 4186 4836.5 4196 4792.5 4203.5C4748.5 4211 4708.5 4214.5 4708.5 4214.5C4708.5 4214.5 4716 4186 4716 4172V4127.5C4716 4114.5 4696.5 4075 4696.5 4075C4696.5 4075 4667.5 4026 4655 4011C4642.5 3996 4612 3967 4600.5 3958.5Z" stroke="#ECCDC4"/>
<path d="M5298.5 4119.5C5292 4100.5 5292 4048 5292 4048C5292 4048 5270 4112 5260.5 4132.5C5251 4153 5230 4194.5 5230 4194.5C5230 4194.5 5346.5 4244 5374 4250.5C5401.5 4257 5450.5 4250.5 5467.5 4250.5C5484.5 4250.5 5545 4267.5 5577.5 4270.5C5610 4273.5 5624.5 4276 5667 4279C5709.5 4282 5766 4282.5 5807.5 4285.5C5849 4288.5 5898 4297 5898 4297C5898 4297 5952 4304.5 5973.5 4310C5995 4315.5 6003 4331.5 6016 4335C6029 4338.5 6071 4339 6085.5 4332C6100 4325 6109 4317 6109 4317C6109 4317 6070 4310 6056 4303C6042 4296 6016 4271 6016 4271C6016 4271 5992.5 4246.5 5978.5 4219.5C5964.5 4192.5 5958 4150.5 5958 4150.5C5958 4150.5 5945 4185.5 5933 4202.5C5921 4219.5 5869.5 4228 5829.5 4238.5C5789.5 4249 5634.5 4238.5 5634.5 4238.5C5634.5 4238.5 5500 4237 5467.5 4231C5435 4225 5363 4194.5 5344 4186C5325 4177.5 5305 4138.5 5298.5 4119.5Z" stroke="#ECCDC4"/>
</svg>
