<svg width="1444" height="1878" viewBox="0 0 1444 1878" fill="none" xmlns="http://www.w3.org/2000/svg">
<rect width="1444" height="1878" fill="#0B1464"/>
<rect x="140" y="462" width="14" height="14" fill="#FFFFF5"/>
<rect x="126" y="462" width="14" height="14" fill="#FFFFF5"/>
<rect x="140" y="448" width="14" height="14" fill="#FFFFF5"/>
<rect x="154" y="462" width="14" height="14" fill="#FFFFF5"/>
<rect x="140" y="476" width="14" height="14" fill="#FFFFF5"/>
<rect x="1176" y="224" width="14" height="14" fill="#FFFFF5"/>
<rect x="1162" y="224" width="14" height="14" fill="#FFFFF5"/>
<rect x="1176" y="210" width="14" height="14" fill="#FFFFF5"/>
<rect x="1190" y="224" width="14" height="14" fill="#FFFFF5"/>
<rect x="1176" y="238" width="14" height="14" fill="#FFFFF5"/>
<rect x="294" y="1316" width="14" height="14" fill="#FFFFF5"/>
<rect x="280" y="1316" width="14" height="14" fill="#FFFFF5"/>
<rect x="294" y="1302" width="14" height="14" fill="#FFFFF5"/>
<rect x="308" y="1316" width="14" height="14" fill="#FFFFF5"/>
<rect x="294" y="1330" width="14" height="14" fill="#FFFFF5"/>
<rect x="735" y="917" width="14" height="14" fill="#FFFFF5"/>
<rect x="721" y="917" width="14" height="14" fill="#FFFFF5"/>
<rect x="735" y="903" width="14" height="14" fill="#FFFFF5"/>
<rect x="749" y="917" width="14" height="14" fill="#FFFFF5"/>
<rect x="735" y="931" width="14" height="14" fill="#FFFFF5"/>
<rect x="1232" y="1652" width="14" height="14" fill="#FFFFF5"/>
<rect x="1218" y="1652" width="14" height="14" fill="#FFFFF5"/>
<rect x="1232" y="1638" width="14" height="14" fill="#FFFFF5"/>
<rect x="1246" y="1652" width="14" height="14" fill="#FFFFF5"/>
<rect x="1232" y="1666" width="14" height="14" fill="#FFFFF5"/>
<rect x="546" y="378" width="14" height="14" fill="#FFFCF1"/>
<rect x="56" y="133" width="14" height="14" fill="#FFFCF1"/>
<rect x="1029" y="574" width="14" height="14" fill="#FFFCF1"/>
<rect x="175" y="1036" width="14" height="14" fill="#FFFCF1"/>
<rect x="427" y="1715" width="14" height="14" fill="#FFFCF1"/>
<rect x="1309" y="1155" width="14" height="14" fill="#FFFCF1"/>
<rect x="854" y="1421" width="14" height="14" fill="#FFFCF1"/>
<rect x="791" y="42" width="14" height="14" fill="#FFFCF1"/>
</svg>
